G04 ================== begin FILE IDENTIFICATION RECORD ==================*
G04 Layout Name:  stabilizator_layout_v5.brd*
G04 Film Name:    BOTTOM*
G04 File Format:  Gerber RS274X*
G04 File Origin:  Cadence Allegro 24.1-P001*
G04 Origin Date:  Sun Dec 15 00:12:25 2024*
G04 *
G04 Layer:  VIA CLASS/BOTTOM*
G04 Layer:  PIN/BOTTOM*
G04 Layer:  ETCH/BOTTOM*
G04 *
G04 Offset:    (0.00 0.00)*
G04 Mirror:    No*
G04 Mode:      Positive*
G04 Rotation:  0*
G04 FullContactRelief:  No*
G04 UndefLineWidth:     0.10*
G04 ================== end FILE IDENTIFICATION RECORD ====================*
%FSLAX25Y25*MOIN*%
%IR0*IPPOS*OFA0.00000B0.00000*MIA0B0*SFA1.00000B1.00000*%
%ADD10C,.02*%
%ADD11C,.018*%
G75*
%LPD*%
G75*
G36*
G01X155999Y4001D02*
X4001D01*
Y155999D01*
X155999D01*
Y4001D01*
G37*
%LPC*%
G75*
G36*
G01X113373Y142873D02*
X109359Y146886D01*
X109335Y146900D01*
G02X108098Y149000I1164J2100D01*
G02X110500Y151402I2402J0D01*
G02X112600Y150165I0J-2401D01*
G01X112614Y150141D01*
X115953Y146802D01*
X119812D01*
X119839Y146809D01*
G02X120500Y146902I662J-2309D01*
G02Y142098I0J-2402D01*
G02X119839Y142191I1J2402D01*
G01X119812Y142198D01*
X115000D01*
G02X113373Y142873I1J2301D01*
G37*
G36*
G01X108698Y122047D02*
X93359Y137386D01*
G02X92098Y139500I1142J2114D01*
G02X94500Y141902I2402J0D01*
G02X96600Y140665I0J-2401D01*
G01X96614Y140641D01*
X112627Y124627D01*
G02X113302Y123000I-1626J-1628D01*
G01Y105988D01*
X113309Y105961D01*
G02X113402Y105300I-2309J-662D01*
G02X108598I-2402J0D01*
G02X108691Y105961I2402J-1D01*
G01X108698Y105988D01*
Y122047D01*
G37*
G36*
G01X136098Y110753D02*
Y135012D01*
X136091Y135039D01*
G02X135998Y135700I2309J662D01*
G02X140802I2402J0D01*
G02X140709Y135039I-2402J1D01*
G01X140702Y135012D01*
Y109800D01*
G02X140027Y108173I-2301J1D01*
G01X137614Y105759D01*
X137600Y105735D01*
G02X135500Y104498I-2100J1164D01*
G02X133098Y106900I0J2402D01*
G02X134335Y109000I2401J0D01*
G01X134359Y109014D01*
X136098Y110753D01*
G37*
G36*
G01X54598Y117653D02*
Y126712D01*
X54591Y126739D01*
G02X54498Y127400I2309J662D01*
G02X59302I2402J0D01*
G02X59209Y126739I-2402J1D01*
G01X59202Y126712D01*
Y116700D01*
G02X58527Y115073I-2301J1D01*
G01X54402Y110947D01*
Y92288D01*
X54409Y92261D01*
G02X54502Y91600I-2309J-662D01*
G02X49698I-2402J0D01*
G02X49791Y92261I2402J-1D01*
G01X49798Y92288D01*
Y111900D01*
G02X50473Y113527I2301J-1D01*
G01X54598Y117653D01*
G37*
G36*
G01X56798Y66447D02*
X50259Y72986D01*
X50235Y73000D01*
G02X48998Y75100I1164J2100D01*
G02X51400Y77502I2402J0D01*
G02X53500Y76265I0J-2401D01*
G01X53514Y76241D01*
X60727Y69027D01*
G02X61402Y67400I-1626J-1628D01*
G01Y46553D01*
X74153Y33802D01*
X101412D01*
X101439Y33809D01*
G02X102100Y33902I662J-2309D01*
G02Y29098I0J-2402D01*
G02X101439Y29191I1J2402D01*
G01X101412Y29198D01*
X73200D01*
G02X71573Y29873I1J2301D01*
G01X57473Y43973D01*
G02X56798Y45600I1626J1628D01*
G01Y66447D01*
G37*
G36*
G01X140598Y29053D02*
Y49812D01*
X140591Y49839D01*
G02X140498Y50500I2309J662D01*
G02X145302I2402J0D01*
G02X145209Y49839I-2402J1D01*
G01X145202Y49812D01*
Y28100D01*
G02X144527Y26473I-2301J1D01*
G01X142727Y24673D01*
G02X141100Y23998I-1628J1626D01*
G01X137988D01*
X137961Y23991D01*
G02X137300Y23898I-662J2309D01*
G02Y28702I0J2402D01*
G02X137961Y28609I-1J-2402D01*
G01X137988Y28602D01*
X140147D01*
X140598Y29053D01*
G37*
G36*
G01X125698Y29153D02*
Y37312D01*
X125691Y37339D01*
G02X125598Y38000I2309J662D01*
G02X130402I2402J0D01*
G02X130309Y37339I-2402J1D01*
G01X130302Y37312D01*
Y28200D01*
G02X129627Y26573I-2301J1D01*
G01X118914Y15859D01*
X118900Y15835D01*
G02X116800Y14598I-2100J1164D01*
G02X114398Y17000I0J2402D01*
G02X115635Y19100I2401J0D01*
G01X115659Y19114D01*
X125698Y29153D01*
G37*
G36*
G01X34273Y82673D02*
X24859Y92086D01*
X24835Y92100D01*
G02X23598Y94200I1164J2100D01*
G02X26000Y96602I2402J0D01*
G02X28100Y95365I0J-2401D01*
G01X28114Y95341D01*
X36853Y86602D01*
X87500D01*
G02X89127Y85927I-1J-2301D01*
G01X118841Y56214D01*
X118865Y56200D01*
G02X119499Y55692I-1163J-2101D01*
G03X120198Y55957I299J265D01*
G01Y62447D01*
X117373Y65273D01*
G02X116698Y66900I1626J1628D01*
G01Y83982D01*
G02X117373Y85609I2301J-1D01*
G01X119899Y88136D01*
X119912Y88158D01*
G02X120275Y88629I1989J-1157D01*
G01X121486Y89841D01*
X121500Y89865D01*
G02X123600Y91102I2100J-1164D01*
G02X126002Y88700I0J-2402D01*
G02X124765Y86600I-2401J0D01*
G01X124741Y86586D01*
X123905Y85750D01*
X123892Y85728D01*
G02X123529Y85257I-1989J1157D01*
G01X121302Y83029D01*
Y67853D01*
X124127Y65027D01*
G02X124802Y63400I-1626J-1628D01*
G01Y56922D01*
G03X125484Y56639I400J0D01*
G01X130098Y61253D01*
Y67712D01*
X130091Y67739D01*
G02X129998Y68400I2309J662D01*
G02X134802I2402J0D01*
G02X134709Y67739I-2402J1D01*
G01X134702Y67712D01*
Y60975D01*
G03X135384Y60693I400J1D01*
G01X136598Y61907D01*
Y77060D01*
G02X141402I2402J0D01*
G01Y60912D01*
G02X140698Y59214I-2402J1D01*
G01X122286Y40802D01*
G02X120588Y40098I-1699J1698D01*
G01X91200D01*
G02X89502Y40802I1J2402D01*
G01X87002Y43302D01*
G02X86298Y45000I1698J1699D01*
G02X87109Y46799I2401J0D01*
G03X86844Y47498I-265J299D01*
G01X76253D01*
X74414Y45659D01*
X74400Y45635D01*
G02X72300Y44398I-2100J1164D01*
G02X69898Y46800I0J2402D01*
G02X71135Y48900I2401J0D01*
G01X71159Y48914D01*
X73673Y51427D01*
G02X75300Y52102I1628J-1626D01*
G01X115399D01*
G03X115727Y52730I0J400D01*
G02X115600Y52935I1976J1366D01*
G01X115586Y52959D01*
X86547Y81998D01*
X35900D01*
G02X34273Y82673I1J2301D01*
G37*
G36*
G01X16102Y65498D02*
X19302Y68698D01*
G02X21000Y69402I1699J-1698D01*
G01X50700D01*
G02Y64598I0J-2402D01*
G01X21995D01*
X20202Y62805D01*
Y60560D01*
G02X20146Y60047I-2402J3D01*
G01X20142Y60026D01*
Y58000D01*
G02X15338I-2402J0D01*
G01Y60500D01*
G02X15394Y61013I2402J-3D01*
G01X15398Y61034D01*
Y63800D01*
G02X16102Y65498I2402J-1D01*
G37*
%LPD*%
G75*
G54D10*
G01X17740Y58000D02*
Y60500D01*
X17800Y60560D01*
Y63800D01*
X21000Y67000D01*
X50700D01*
G01X125294Y47206D02*
X120588Y42500D01*
X91200D01*
X88700Y45000D01*
G01X139000Y77060D02*
Y60912D01*
X125294Y47206D01*
X15500Y20000D03*
X17740Y58000D03*
X26000Y94200D03*
X16140Y147640D03*
X51400Y75100D03*
X50700Y67000D03*
X34300Y79500D03*
X52100Y91600D03*
X56900Y127400D03*
X72300Y46800D03*
X88700Y45000D03*
X116800Y17000D03*
X102100Y31500D03*
X93800Y46400D03*
X117700Y54100D03*
X111000Y105300D03*
X94500Y139500D03*
X110500Y149000D03*
X120500Y144500D03*
X133140Y15640D03*
X150400Y13200D03*
X137300Y26300D03*
X142900Y50500D03*
X125294Y47206D03*
X151140Y51760D03*
X128000Y38000D03*
X132400Y68400D03*
X139000Y77060D03*
X135500Y106900D03*
X123600Y88700D03*
X131600Y104500D03*
X138400Y135700D03*
X144000Y136200D03*
G54D11*
G01X117700Y54100D02*
X87500Y84300D01*
X35900D01*
X26000Y94200D01*
G01X51400Y75100D02*
X59100Y67400D01*
Y45600D01*
X73200Y31500D01*
X102100D01*
G01X56900Y127400D02*
Y116700D01*
X52100Y111900D01*
Y91600D01*
G01X123600Y88700D02*
X121902Y87002D01*
Y86884D01*
X119000Y83982D01*
Y66900D01*
X122500Y63400D01*
Y54201D01*
X118099Y49800D01*
X75300D01*
X72300Y46800D01*
G01X128000Y38000D02*
Y28200D01*
X116800Y17000D01*
G01X132400Y68400D02*
Y60300D01*
X118500Y46400D01*
X93800D01*
G01X94500Y139500D02*
X111000Y123000D01*
Y105300D01*
G01X120500Y144500D02*
X115000D01*
X110500Y149000D01*
G01X142900Y50500D02*
Y28100D01*
X141100Y26300D01*
X137300D01*
G01X138400Y135700D02*
Y109800D01*
X135500Y106900D01*
M02*
