M48
INCH,TZ
T01C.016
;LEADER: 12 
;HEADER: 
;CODE  : ASCII 
;FILE  : DRILL-1-2.drl for  ... layers TOP and BOTTOM
;DESIGN: stabilizator_layout_v5.brd
;T01 Holesize 1. = 16.000000 Tolerance = +0.000000/-0.000000 PLATED MILS Quantity = 33
%
G90
T01
X128000Y38000
X116800Y17000
X144000Y136200
X151140Y51760
X150400Y13200
X133140Y15640
X16140Y147640
X34300Y79500
X131600Y104500
X15500Y20000
X139000Y77060
X125294Y47206
X88700Y45000
X17740Y58000
X50700Y67000
X142900Y50500
X137300Y26300
X72300Y46800
X123600Y88700
X26000Y94200
X117700Y54100
X94500Y139500
X111000Y105300
X93800Y46400
X132400Y68400
X51400Y75100
X102100Y31500
X56900Y127400
X52100Y91600
X135500Y106900
X138400Y135700
X120500Y144500
X110500Y149000
M30
