G04 ================== begin FILE IDENTIFICATION RECORD ==================*
G04 Layout Name:  stabilizator_layout_v5.brd*
G04 Film Name:    SSTOP*
G04 File Format:  Gerber RS274X*
G04 File Origin:  Cadence Allegro 24.1-P001*
G04 Origin Date:  Sun Dec 15 18:30:18 2024*
G04 *
G04 Layer:  REF DES/SILKSCREEN_TOP*
G04 Layer:  PACKAGE GEOMETRY/SILKSCREEN_TOP*
G04 *
G04 Offset:    (0.00 0.00)*
G04 Mirror:    No*
G04 Mode:      Positive*
G04 Rotation:  0*
G04 FullContactRelief:  No*
G04 UndefLineWidth:     10.00*
G04 ================== end FILE IDENTIFICATION RECORD ====================*
%FSLAX25Y25*MOIN*%
%IR0*IPPOS*OFA0.00000B0.00000*MIA0B0*SFA1.00000B1.00000*%
%ADD10C,.001*%
%ADD11C,.002*%
%ADD12C,.003*%
%ADD13C,.004*%
%ADD14C,.0025*%
%ADD15C,.00394*%
%ADD16C,.00984*%
%ADD17C,.00787*%
G75*
%LPD*%
G75*
G54D10*
G01X47889Y127168D02*
G02X47990Y127097I-91J-236D01*
G02X48070Y126972I-395J-341D01*
G02X48122Y126806I-656J-297D01*
G02X48140Y126616I-1019J-192D01*
G02X48120Y126389I-1348J4D01*
G02X48058Y126237I-374J64D01*
G02X47943Y126135I-264J182D01*
G02X47758Y126065I-388J747D01*
G02X47588Y126041I-196J774D01*
G02X47391Y126050I-36J1364D01*
G02X47200Y126086I152J1329D01*
G02X47045Y126147I185J696D01*
G02X46760Y126510I271J506D01*
G02X46855Y126937I466J120D01*
G02X47316Y127215I626J-516D01*
G02X47889Y127168I206J-1002D01*
G01X47030Y126630D02*
G03X47059Y126570I77J0D01*
G03X47147Y126518I216J266D01*
G03X47275Y126483I217J541D01*
G03X47426Y126472I148J983D01*
G03X47578Y126483I4J1001D01*
G03X47706Y126518I-89J576D01*
G03X47794Y126570I-128J318D01*
G03X47823Y126630I-48J60D01*
G03X47794Y126691I-78J0D01*
G03X47706Y126742I-213J-266D01*
G03X47578Y126777I-217J-541D01*
G03X47426Y126789I-155J-989D01*
G03X47275Y126777I3J-995D01*
G03X47147Y126742I89J-576D01*
G03X47059Y126691I125J-317D01*
G03X47030Y126630I49J-61D01*
G01X48036Y125389D02*
G02X48196Y125147I-718J-649D01*
G02X48160Y124995I-115J-53D01*
G02X47936Y124907I-255J320D01*
G02X47405Y124887I-533J7100D01*
G02X47055Y124896I-6J6565D01*
G02X46880Y124935I30J546D01*
G02X46811Y125010I44J110D01*
G02X46814Y125125I168J53D01*
G02X46872Y125215I256J-101D01*
G02X46967Y125292I334J-315D01*
G02X47084Y125345I265J-429D01*
G02X47206Y125362I119J-409D01*
G03X47320Y125374I-2J565D01*
G03X47418Y125409I-74J362D01*
G03X47483Y125460I-107J203D01*
G03X47506Y125521I-69J61D01*
G02X47554Y125637I163J0D01*
G02X47663Y125667I81J-82D01*
G02X47834Y125582I-104J-424D01*
G02X48036Y125389I-1180J-1437D01*
G01X47913Y124290D02*
G02X48097Y124099I-365J-536D01*
G02X48188Y123850I-543J-340D01*
G02X48168Y123596I-583J-82D01*
G02X48042Y123386I-482J146D01*
G02X47668Y123178I-549J548D01*
G02X47214Y123183I-217J947D01*
G02X46851Y123387I190J763D01*
G02X46713Y123718I328J331D01*
G02X46831Y124044I509J0D01*
G02X47155Y124296I737J-613D01*
G02X47564Y124393I432J-912D01*
G02X47913Y124290I15J-591D01*
G01X47030Y123777D02*
G03X47059Y123717I77J0D01*
G03X47147Y123665I216J266D01*
G03X47275Y123630I217J541D01*
G03X47426Y123619I148J983D01*
G03X47578Y123630I4J1001D01*
G03X47706Y123665I-89J576D01*
G03X47794Y123717I-128J318D01*
G03X47823Y123777I-48J60D01*
G03X47794Y123838I-78J0D01*
G03X47706Y123889I-213J-266D01*
G03X47578Y123924I-217J-541D01*
G03X47426Y123936I-155J-989D01*
G03X47275Y123924I3J-995D01*
G03X47147Y123889I89J-576D01*
G03X47059Y123838I125J-317D01*
G03X47030Y123777I49J-61D01*
G01X48036Y122536D02*
G02X48197Y122298I-748J-679D01*
G02X48167Y122145I-117J-57D01*
G02X47960Y122055I-238J264D01*
G02X47479Y122034I-481J5503D01*
G02X47195Y122046I-4J3262D01*
G02X47013Y122089I58J654D01*
G02X46910Y122164I91J233D01*
G02X46872Y122272I133J107D01*
G02X46896Y122363I183J0D01*
G02X46964Y122440I220J-126D01*
G02X47067Y122492I197J-261D01*
G02X47189Y122509I119J-411D01*
G03X47310Y122521I-2J634D01*
G03X47413Y122556I-77J394D01*
G03X47482Y122607I-109J220D01*
G03X47506Y122668I-65J61D01*
G02X47554Y122784I163J0D01*
G02X47663Y122814I81J-82D01*
G02X47834Y122729I-104J-424D01*
G02X48036Y122536I-1180J-1437D01*
G01X48049Y121309D02*
G02X48144Y121204I-1007J-1006D01*
G02X48225Y121094I-944J-780D01*
G02X48282Y120993I-847J-545D01*
G02X48298Y120925I-138J-68D01*
G02X48227Y120723I-320J-1D01*
G02X48004Y120510I-966J788D01*
G02X47717Y120346I-826J1112D01*
G02X47447Y120291I-270J637D01*
G02X47174Y120335I-2J858D01*
G02X46935Y120464I255J758D01*
G02X46771Y120652I409J522D01*
G02X46713Y120866I367J214D01*
G02X46781Y121089I404J-1D01*
G02X46984Y121322I971J-641D01*
G02X47250Y121499I809J-927D01*
G02X47506Y121558I255J-520D01*
G02X47636Y121540I0J-481D01*
G02X47787Y121485I-276J-994D01*
G02X47932Y121405I-451J-989D01*
G02X48049Y121309I-412J-622D01*
G01X47109Y120925D02*
G03X47106Y120864I55J-33D01*
G03X47156Y120812I102J48D01*
G03X47265Y120777I159J307D01*
G03X47417Y120766I153J1059D01*
G03X47572Y120778I-3J1045D01*
G03X47704Y120813I-90J605D01*
G03X47793Y120864I-128J327D01*
G03X47823Y120925I-48J61D01*
G03X47799Y120985I-90J-1D01*
G03X47732Y121036I-174J-160D01*
G03X47633Y121071I-175J-337D01*
G03X47515Y121083I-119J-588D01*
G03X47390Y121071I1J-671D01*
G03X47269Y121036I128J-669D01*
G03X47169Y120985I203J-522D01*
G03X47109Y120925I103J-163D01*
G01X48106Y119529D02*
G02X48228Y119314I-1461J-971D01*
G02X48201Y119226I-62J-29D01*
G02X48064Y119187I-141J236D01*
G02X47530Y119181I-561J26124D01*
G02X47107Y119190I3J10085D01*
G02X46900Y119228I32J757D01*
G02X46817Y119304I44J131D01*
G02X46814Y119419I138J61D01*
G02X46872Y119510I259J-101D01*
G02X46967Y119587I334J-315D01*
G02X47084Y119639I261J-429D01*
G02X47206Y119657I123J-408D01*
G03X47320Y119669I3J520D01*
G03X47418Y119707I-77J344D01*
G03X47483Y119763I-115J199D01*
G03X47506Y119828I-81J65D01*
G02X47572Y119928I108J0D01*
G02X47708Y119923I63J-151D01*
G02X47909Y119775I-323J-649D01*
G02X48106Y119529I-1296J-1239D01*
G01X47913Y118584D02*
G02X48097Y118393I-365J-536D01*
G02X48188Y118145I-541J-339D01*
G02X48168Y117890I-586J-82D01*
G02X48042Y117680I-482J146D01*
G02X47668Y117473I-548J548D01*
G02X47214Y117477I-219J946D01*
G02X46851Y117681I190J763D01*
G02X46713Y118013I329J332D01*
G02X46831Y118338I508J0D01*
G02X47155Y118590I737J-613D01*
G02X47564Y118688I435J-912D01*
G02X47913Y118584I14J-592D01*
G01X47030Y118072D02*
G03X47059Y118011I78J0D01*
G03X47147Y117960I213J266D01*
G03X47275Y117925I217J541D01*
G03X47426Y117913I154J983D01*
G03X47578Y117925I-3J1001D01*
G03X47706Y117960I-89J576D01*
G03X47794Y118011I-125J317D01*
G03X47823Y118072I-49J61D01*
G03X47794Y118132I-77J0D01*
G03X47706Y118184I-216J-266D01*
G03X47578Y118219I-217J-541D01*
G03X47426Y118230I-148J-990D01*
G03X47275Y118219I-3J-994D01*
G03X47147Y118184I89J-576D01*
G03X47059Y118132I128J-318D01*
G03X47030Y118072I48J-60D01*
G01Y116645D02*
G03X47059Y116585I77J0D01*
G03X47147Y116533I216J266D01*
G03X47275Y116498I217J541D01*
G03X47426Y116487I148J983D01*
G03X47578Y116498I4J1001D01*
G03X47706Y116533I-89J576D01*
G03X47794Y116585I-128J318D01*
G03X47823Y116645I-48J60D01*
G03X47794Y116706I-78J0D01*
G03X47706Y116757I-213J-266D01*
G03X47578Y116792I-217J-541D01*
G03X47426Y116804I-155J-989D01*
G03X47275Y116792I3J-995D01*
G03X47147Y116757I89J-576D01*
G03X47059Y116706I125J-317D01*
G03X47030Y116645I49J-61D01*
G01X47889Y117183D02*
G02X47990Y117112I-91J-236D01*
G02X48070Y116987I-395J-341D01*
G02X48122Y116821I-656J-297D01*
G02X48140Y116631I-1019J-192D01*
G02X48120Y116404I-1348J4D01*
G02X48058Y116252I-374J64D01*
G02X47943Y116151I-262J182D01*
G02X47758Y116080I-393J746D01*
G02X47588Y116056I-196J774D01*
G02X47391Y116065I-36J1364D01*
G02X47200Y116101I152J1329D01*
G02X47045Y116162I185J696D01*
G02X46760Y116525I271J506D01*
G02X46855Y116952I466J120D01*
G02X47316Y117230I626J-516D01*
G02X47889Y117183I206J-1002D01*
G01X45287Y129074D02*
G02X45277Y128740I-5490J-3D01*
G02X45240Y128535I-901J57D01*
G02X45177Y128433I-218J64D01*
G02X45089Y128415I-59J65D01*
G02X45017Y128468I48J140D01*
G02X44964Y128569I302J223D01*
G02X44938Y128702I502J167D01*
G02X44944Y128846I680J44D01*
G03X44960Y129024I-1548J229D01*
G03X44932Y129112I-141J4D01*
G03X44865Y129142I-60J-44D01*
G03X44746Y129114I43J-449D01*
G02X44573Y129103I-104J271D01*
G02X44502Y129199I22J91D01*
G02X44573Y129386I328J-18D01*
G02X44772Y129579I877J-705D01*
G02X45055Y129761I1317J-1737D01*
G02X45195Y129742I57J-104D01*
G02X45272Y129573I-181J-184D01*
G02X45287Y129074I-8416J-503D01*
G01X44811Y114179D02*
G03X44822Y114027I1070J1D01*
G03X44857Y113918I342J50D01*
G03X44909Y113868I100J52D01*
G03X44970Y113872I27J58D01*
G03X45031Y113931I-100J165D01*
G03X45082Y114031I-471J303D01*
G03X45117Y114152I-634J249D01*
G03X45128Y114277I-660J121D01*
G03X45117Y114395I-599J4D01*
G03X45082Y114495I-375J-75D01*
G03X45030Y114562I-211J-110D01*
G03X44970Y114585I-60J-66D01*
G03X44909Y114555I0J-78D01*
G03X44858Y114466I276J-217D01*
G03X44823Y114335I566J-221D01*
G03X44811Y114179I1040J-158D01*
G01X44098Y129087D02*
G02X44086Y128700I-6150J-3D01*
G02X44029Y128545I-288J18D01*
G02X43904Y128472I-150J113D01*
G02X43623Y128453I-280J2057D01*
G02X43366Y128471I1J1860D01*
G02X43224Y128534I38J277D01*
G02X43143Y128661I167J196D01*
G02X43096Y128898I1453J411D01*
G02X43111Y129270I1210J137D01*
G02X43243Y129563I685J-133D01*
G02X43474Y129735I422J-326D01*
G02X43767Y129768I210J-547D01*
G02X43935Y129713I-70J-498D01*
G02X44035Y129609I-111J-207D01*
G02X44085Y129424I-464J-225D01*
G02X44098Y129087I-4313J-335D01*
G01X43574D02*
G03X43581Y128917I3317J51D01*
G03X43600Y128833I269J17D01*
G03X43625Y128831I13J6D01*
G03X43653Y128892I-160J110D01*
G03X43675Y129013I-798J208D01*
G03X43682Y129147I-1131J126D01*
G03X43672Y129272I-1034J-20D01*
G03X43647Y129367I-389J-52D01*
G03X43619Y129386I-28J-11D01*
G03X43593Y129365I1J-28D01*
G03X43577Y129258I500J-130D01*
G03X43574Y129087I2968J-138D01*
G01X45242Y114933D02*
G02X45385Y114744I-181J-286D01*
G02X45465Y114354I-2189J-652D01*
G02X45475Y113943I-2291J-261D01*
G02X45388Y113669I-592J37D01*
G02X45229Y113532I-298J185D01*
G02X44992Y113482I-240J553D01*
G02X44736Y113529I-3J705D01*
G02X44526Y113666I218J564D01*
G02X44382Y113907I401J403D01*
G02X44345Y114228I923J269D01*
G02X44416Y114554I1027J-53D01*
G02X44585Y114811I705J-280D01*
G02X44775Y114980I1520J-1518D01*
G02X44914Y115043I197J-250D01*
G02X45055Y115029I46J-250D01*
G02X45242Y114933I-426J-1060D01*
G01X43702Y114519D02*
G03X43717Y114367I791J1D01*
G03X43760Y114229I641J124D01*
G03X43824Y114123I446J197D01*
G03X43900Y114069I129J101D01*
G02X43985Y114023I-86J-260D01*
G02X44012Y113962I-46J-57D01*
G02X43983Y113876I-171J10D01*
G02X43881Y113739I-1468J986D01*
G02X43609Y113492I-995J823D01*
G02X43402Y113493I-103J152D01*
G02X43264Y113711I185J270D01*
G02X43226Y114189I3006J480D01*
G02X43238Y114533I5164J-8D01*
G02X43279Y114743I839J-55D01*
G02X43354Y114859I263J-88D01*
G02X43464Y114902I110J-119D01*
G02X43561Y114874I-1J-185D01*
G02X43638Y114798I-122J-201D01*
G02X43686Y114677I-314J-194D01*
G02X43702Y114519I-775J-158D01*
G01X42592Y129087D02*
G02X42581Y128742I-5178J-8D01*
G02X42540Y128532I-839J55D01*
G02X42465Y128417I-261J88D01*
G02X42355Y128374I-110J119D01*
G02X42256Y128402I-1J185D01*
G02X42180Y128481I125J196D01*
G02X42132Y128609I338J200D01*
G02X42117Y128779I932J168D01*
G03X42106Y128932I-1077J-1D01*
G03X42071Y129040I-339J-50D01*
G03X42019Y129090I-100J-52D01*
G03X41958Y129087I-28J-58D01*
G02X41852Y129096I-47J76D01*
G02X41804Y129210I92J106D01*
G02X41859Y129423I580J-36D01*
G02X41990Y129610I604J-284D01*
G02X42248Y129794I682J-683D01*
G02X42438Y129769I76J-156D01*
G02X42560Y129547I-237J-275D01*
G02X42592Y129087I-3195J-453D01*
G01X40771Y129326D02*
G03X40745Y129246I148J-92D01*
G03X40750Y129133I530J-33D01*
G03X40781Y129008I660J97D01*
G03X40836Y128890I661J236D01*
G03X40928Y128743I2083J1201D01*
G03X40970Y128739I23J16D01*
G03X40996Y128797I-58J61D01*
G03X41003Y129047I-8827J372D01*
G03X40996Y129341I-4275J45D01*
G03X40950Y129457I-199J-12D01*
G03X40877Y129460I-38J-32D01*
G03X40771Y129326I512J-514D01*
G01X42502Y114811D02*
G02X42727Y114396I-585J-586D01*
G02X42691Y113920I-843J-176D01*
G02X42418Y113580I-647J240D01*
G02X42017Y113502I-298J460D01*
G02X41776Y113658I73J376D01*
G02X41629Y113993I760J533D01*
G02X41613Y114394I1106J245D01*
G02X41746Y114732I770J-108D01*
G02X41941Y114965I1472J-1034D01*
G02X42104Y115043I191J-189D01*
G02X42276Y114999I26J-255D01*
G02X42502Y114811I-916J-1331D01*
G01X41958Y114277D02*
G03X41970Y114152I671J1D01*
G03X42005Y114031I669J128D01*
G03X42056Y113931I522J203D01*
G03X42117Y113872I161J106D01*
G03X42178Y113868I34J54D01*
G03X42230Y113918I-48J102D01*
G03X42265Y114027I-307J159D01*
G03X42275Y114179I-1059J146D01*
G03X42264Y114335I-1052J4D01*
G03X42229Y114466I-601J-90D01*
G03X42178Y114555I-327J-128D01*
G03X42117Y114585I-61J-48D01*
G03X42056Y114562I-1J-90D01*
G03X42005Y114495I160J-174D01*
G03X41970Y114395I340J-175D01*
G03X41958Y114277I588J-119D01*
G01X40026Y129137D02*
G02X40035Y128840I-2785J-233D01*
G02X39998Y128640I-645J16D01*
G02X39910Y128497I-372J130D01*
G02X39760Y128384I-437J424D01*
G02X39593Y128315I-441J831D01*
G02X39459Y128304I-92J294D01*
G02X39333Y128352I43J302D01*
G02X39196Y128464I492J742D01*
G02X38967Y128875I607J607D01*
G02X38993Y129340I804J188D01*
G02X39257Y129677I634J-224D01*
G02X39659Y129766I319J-487D01*
G02X39813Y129712I-59J-413D01*
G02X39919Y129605I-154J-258D01*
G02X39987Y129425I-490J-288D01*
G02X40026Y129137I-2727J-516D01*
G01X41317Y129572D02*
G02X41386Y129453I-317J-263D01*
G02X41435Y129280I-1090J-402D01*
G02X41460Y129086I-1298J-266D01*
G02X41455Y128898I-1113J-64D01*
G02X41408Y128661I-1500J174D01*
G02X41327Y128534I-248J69D01*
G02X41185Y128471I-180J214D01*
G02X40928Y128453I-258J1842D01*
G02X40671Y128471I1J1858D01*
G02X40530Y128534I38J273D01*
G02X40448Y128662I168J198D01*
G02X40401Y128902I1501J418D01*
G02X40388Y129091I2178J245D01*
G02X40390Y129285I2457J72D01*
G02X40406Y129459I2162J-111D01*
G02X40436Y129576I512J-69D01*
G02X40580Y129735I277J-106D01*
G02X40827Y129793I245J-488D01*
G02X41102Y129734I-4J-689D01*
G02X41317Y129572I-236J-537D01*
G01X39454Y129087D02*
G03X39460Y128917I3316J32D01*
G03X39479Y128833I269J17D01*
G03X39505Y128831I14J6D01*
G03X39532Y128892I-160J107D01*
G03X39555Y129013I-798J214D01*
G03X39561Y129147I-1131J118D01*
G03X39552Y129272I-1034J-12D01*
G03X39527Y129367I-389J-52D01*
G03X39498Y129386I-28J-11D01*
G03X39473Y129365I1J-27D01*
G03X39456Y129258I500J-134D01*
G03X39454Y129087I2968J-120D01*
G01X39898Y114164D02*
G02X39753Y113655I-968J1D01*
G02X39395Y113473I-329J204D01*
G02X39009Y113701I37J503D01*
G02X38818Y114246I1027J666D01*
G02X38809Y114507I1985J199D01*
G02X38851Y114674I405J-13D01*
G02X38953Y114791I273J-135D01*
G02X39135Y114885I494J-733D01*
G02X39462Y114942I312J-821D01*
G02X39704Y114843I-7J-362D01*
G02X39851Y114585I-350J-370D01*
G02X39898Y114164I-1865J-421D01*
G01X40849Y114506D02*
G03X40865Y114340I886J2D01*
G03X40912Y114215I375J70D01*
G03X40989Y114138I199J122D01*
G03X41087Y114109I100J156D01*
G02X41178Y114101I4J-470D01*
G02X41255Y114074I-59J-293D01*
G02X41307Y114035I-83J-165D01*
G02X41325Y113989I-50J-46D01*
G02X41255Y113844I-186J0D01*
G02X40993Y113665I-1296J1615D01*
G02X40708Y113529I-1030J1792D01*
G02X40550Y113544I-64J166D01*
G02X40456Y113686I105J172D01*
G02X40411Y114117I5237J765D01*
G02X40405Y114551I4517J279D01*
G02X40472Y114774I452J-14D01*
G02X40596Y114890I276J-171D01*
G02X40722Y114882I57J-106D01*
G02X40818Y114744I-144J-202D01*
G02X40849Y114506I-893J-237D01*
G01X39295Y114189D02*
G03X39301Y114019I3316J32D01*
G03X39321Y113935I270J20D01*
G03X39346Y113932I13J5D01*
G03X39374Y113994I-162J111D01*
G03X39396Y114115I-798J208D01*
G03X39402Y114249I-1131J118D01*
G03X39393Y114374I-1034J-12D01*
G03X39368Y114469I-389J-52D01*
G03X39340Y114488I-28J-11D01*
G03X39314Y114467I1J-28D01*
G03X39298Y114360I500J-130D01*
G03X39295Y114189I2968J-138D01*
G01X38551Y129087D02*
G02X38538Y128719I-5086J-5D01*
G02X38481Y128547I-373J28D01*
G02X38361Y128454I-187J117D01*
G02X38121Y128403I-387J1230D01*
G02X37897Y128396I-154J1353D01*
G02X37756Y128441I13J285D01*
G02X37662Y128549I142J219D01*
G02X37592Y128745I967J456D01*
G02X37567Y129136I1058J264D01*
G02X37686Y129487I875J-101D01*
G02X37917Y129714I553J-332D01*
G02X38205Y129770I225J-389D01*
G02X38383Y129715I-81J-579D01*
G02X38487Y129612I-103J-208D01*
G02X38538Y129429I-436J-220D01*
G02X38551Y129087I-4432J-340D01*
G01X37996Y129096D02*
G03X38008Y128941I1045J3D01*
G03X38043Y128810I601J90D01*
G03X38094Y128720I330J128D01*
G03X38155Y128691I60J48D01*
G03X38215Y128714I0J89D01*
G03X38267Y128781I-159J177D01*
G03X38302Y128880I-337J175D01*
G03X38313Y128998I-588J114D01*
G03X38301Y129123I-671J-1D01*
G03X38267Y129244I-669J-123D01*
G03X38216Y129344I-522J-203D01*
G03X38155Y129404I-163J-105D01*
G03X38094Y129407I-33J-55D01*
G03X38042Y129357I48J-102D01*
G03X38007Y129249I304J-158D01*
G03X37996Y129096I1066J-154D01*
G01X38155Y114496D02*
G03X38166Y114344I1070J1D01*
G03X38200Y114235I341J47D01*
G03X38252Y114185I100J52D01*
G03X38313Y114189I27J58D01*
G02X38421Y114190I55J-90D01*
G02X38466Y114098I-46J-79D01*
G02X38396Y113897I-540J75D01*
G02X38245Y113702I-840J494D01*
G02X37987Y113504I-881J881D01*
G02X37814Y113520I-75J130D01*
G02X37706Y113723I205J240D01*
G02X37679Y114189I4040J468D01*
G02X37691Y114533I5164J-8D01*
G02X37732Y114743I839J-55D01*
G02X37807Y114859I263J-88D01*
G02X37917Y114902I110J-119D01*
G02X38016Y114873I-1J-185D01*
G02X38092Y114795I-122J-195D01*
G02X38139Y114667I-339J-197D01*
G02X38155Y114496I-937J-174D01*
G01X37045Y129087D02*
G02X37034Y128742I-5178J-8D01*
G02X36992Y128532I-840J59D01*
G02X36918Y128417I-261J86D01*
G02X36808Y128374I-110J119D01*
G02X36709Y128402I-1J185D01*
G02X36633Y128481I125J196D01*
G02X36585Y128609I338J200D01*
G02X36570Y128779I932J168D01*
G03X36559Y128932I-1077J-1D01*
G03X36524Y129040I-339J-50D01*
G03X36472Y129090I-100J-52D01*
G03X36411Y129087I-28J-58D01*
G02X36351Y129069I-63J102D01*
G02X36299Y129088I-2J75D01*
G02X36264Y129144I78J88D01*
G02X36253Y129228I298J82D01*
G02X36310Y129401I293J-1D01*
G02X36486Y129590I874J-638D01*
G02X36713Y129740I752J-891D01*
G02X36926Y129795I234J-466D01*
G02X36973Y129761I2J-46D01*
G02X37010Y129589I-1779J-473D01*
G02X37037Y129360I-2196J-375D01*
G02X37045Y129087I-4349J-264D01*
G01X35333D02*
G03X35339Y128917I3316J32D01*
G03X35358Y128833I269J17D01*
G03X35384Y128831I14J6D01*
G03X35412Y128892I-160J110D01*
G03X35434Y129013I-798J208D01*
G03X35440Y129147I-1131J118D01*
G03X35431Y129272I-1034J-12D01*
G03X35406Y129367I-389J-52D01*
G03X35378Y129386I-28J-11D01*
G03X35352Y129365I1J-28D01*
G03X35336Y129258I500J-130D01*
G03X35333Y129087I2968J-138D01*
G01X36992Y114589D02*
G02X37087Y114079I-836J-419D01*
G02X36883Y113641I-721J69D01*
G02X36506Y113511I-319J313D01*
G02X36144Y113726I71J531D01*
G02X35991Y114013I938J684D01*
G02X35947Y114300I697J254D01*
G02X36016Y114572I687J-29D01*
G02X36192Y114818I825J-404D01*
G02X36418Y114982I626J-626D01*
G02X36621Y115002I127J-249D01*
G02X36810Y114875I-103J-357D01*
G02X36992Y114589I-1308J-1034D01*
G01X34985Y114277D02*
G03X34997Y114152I671J1D01*
G03X35031Y114031I669J123D01*
G03X35083Y113931I522J208D01*
G03X35143Y113872I161J103D01*
G03X35204Y113868I34J54D01*
G03X35256Y113918I-48J102D01*
G03X35291Y114027I-307J159D01*
G03X35302Y114179I-1059J153D01*
G03X35290Y114335I-1052J-2D01*
G03X35255Y114466I-601J-90D01*
G03X35204Y114555I-327J-128D01*
G03X35143Y114585I-61J-48D01*
G03X35083Y114562I0J-89D01*
G03X35031Y114495I159J-177D01*
G03X34997Y114395I341J-172D01*
G03X34985Y114277I588J-119D01*
G01X36411Y114179D02*
G03X36422Y114027I1070J1D01*
G03X36457Y113918I342J50D01*
G03X36509Y113868I100J52D01*
G03X36570Y113872I27J58D01*
G03X36631Y113931I-100J165D01*
G03X36682Y114031I-471J303D01*
G03X36717Y114152I-634J249D01*
G03X36728Y114277I-660J121D01*
G03X36717Y114395I-599J4D01*
G03X36682Y114495I-375J-75D01*
G03X36630Y114562I-211J-110D01*
G03X36570Y114585I-60J-66D01*
G03X36509Y114555I0J-78D01*
G03X36458Y114466I276J-217D01*
G03X36423Y114335I566J-221D01*
G03X36411Y114179I1040J-158D01*
G01X35769Y129572D02*
G02X35838Y129453I-317J-263D01*
G02X35888Y129280I-1089J-409D01*
G02X35913Y129086I-1298J-266D01*
G02X35908Y128898I-1113J-64D01*
G02X35861Y128661I-1500J174D01*
G02X35779Y128534I-248J70D01*
G02X35638Y128471I-179J212D01*
G02X35381Y128453I-258J1842D01*
G02X35124Y128471I1J1858D01*
G02X34982Y128534I37J275D01*
G02X34901Y128662I169J196D01*
G02X34854Y128902I1501J418D01*
G02X34841Y129091I2178J245D01*
G02X34843Y129285I2457J72D01*
G02X34859Y129459I2162J-111D01*
G02X34889Y129576I512J-69D01*
G02X35033Y129735I277J-106D01*
G02X35280Y129793I245J-488D01*
G02X35555Y129734I-4J-689D01*
G02X35769Y129572I-237J-535D01*
G01X35528Y114811D02*
G02X35753Y114396I-585J-586D01*
G02X35718Y113920I-843J-177D01*
G02X35445Y113580I-647J240D01*
G02X35044Y113502I-298J460D01*
G02X34803Y113658I73J376D01*
G02X34655Y113993I760J536D01*
G02X34640Y114394I1106J242D01*
G02X34773Y114732I770J-108D01*
G02X34967Y114965I1472J-1028D01*
G02X35130Y115043I191J-189D01*
G02X35303Y114999I27J-256D01*
G02X35528Y114811I-916J-1325D01*
G01X33558Y126709D02*
G02X33530Y126611I-183J-1D01*
G02X33451Y126535I-196J125D01*
G02X33323Y126487I-200J338D01*
G02X33153Y126472I-168J932D01*
G03X33001Y126461I1J-1070D01*
G03X32892Y126426I50J-342D01*
G03X32842Y126374I52J-100D01*
G03X32845Y126313I58J-28D01*
G02Y126200I-90J-56D01*
G02X32746Y126160I-77J49D01*
G02X32534Y126257I145J598D01*
G02X32353Y126432I482J679D01*
G02X32170Y126715I1764J1342D01*
G02X32189Y126855I105J57D01*
G02X32355Y126932I181J-173D01*
G02X32845Y126947I491J-8034D01*
G02X33190Y126936I8J-5178D01*
G02X33400Y126894I-59J-840D01*
G02X33515Y126820I-86J-261D01*
G02X33558Y126709I-120J-110D01*
G01X33368Y125648D02*
G02X33441Y125549I-292J-291D01*
G02X33503Y125407I-890J-473D01*
G02X33544Y125248I-1048J-355D01*
G02X33558Y125096I-819J-152D01*
G02X33460Y124824I-422J-1D01*
G02X33198Y124645I-453J382D01*
G02X32834Y124605I-271J786D01*
G02X32464Y124720I116J1026D01*
G02X32187Y125016I298J556D01*
G02X32169Y125398I473J214D01*
G02X32422Y125717I574J-195D01*
G02X32845Y125838I423J-680D01*
G02X32987Y125824I0J-724D01*
G02X33136Y125782I-202J-1003D01*
G02X33271Y125720I-330J-897D01*
G02X33368Y125648I-206J-379D01*
G01X32449Y125204D02*
G03X32478Y125143I78J0D01*
G03X32565Y125092I213J263D01*
G03X32694Y125057I217J546D01*
G03X32845Y125045I154J983D01*
G03X32997Y125057I-3J1001D01*
G03X33125Y125092I-89J576D01*
G03X33213Y125143I-125J317D01*
G03X33242Y125204I-49J61D01*
G03X33213Y125264I-77J0D01*
G03X33125Y125316I-216J-266D01*
G03X32997Y125351I-217J-541D01*
G03X32845Y125362I-148J-990D01*
G03X32694Y125351I-3J-994D01*
G03X32565Y125316I88J-581D01*
G03X32478Y125264I129J-314D01*
G03X32449Y125204I48J-60D01*
G01X33308Y124315D02*
G02X33485Y124150I-116J-302D01*
G02X33551Y123858I-630J-296D01*
G02X33489Y123537I-849J-2D01*
G02X33311Y123294I-571J231D01*
G02X33023Y123183I-309J373D01*
G02X32644Y123234I-49J1067D01*
G02X32313Y123414I321J985D01*
G02X32160Y123669I273J337D01*
G02X32202Y124033I598J115D01*
G02X32445Y124299I524J-235D01*
G02X32845Y124403I395J-700D01*
G02X33308Y124315I-11J-1320D01*
G01X32449Y123777D02*
G03X32478Y123717I77J0D01*
G03X32565Y123665I216J262D01*
G03X32694Y123630I217J546D01*
G03X32845Y123619I148J983D01*
G03X32997Y123630I4J1001D01*
G03X33125Y123665I-89J576D01*
G03X33213Y123717I-128J318D01*
G03X33242Y123777I-48J60D01*
G03X33213Y123838I-78J0D01*
G03X33125Y123889I-213J-266D01*
G03X32997Y123924I-217J-541D01*
G03X32845Y123936I-155J-989D01*
G03X32694Y123924I3J-995D01*
G03X32565Y123889I88J-581D01*
G03X32478Y123838I126J-314D01*
G03X32449Y123777I49J-61D01*
G01X33558Y122430D02*
G02X33530Y122331I-185J-1D01*
G02X33451Y122255I-196J125D01*
G02X33323Y122208I-197J339D01*
G02X33153Y122192I-173J932D01*
G03X33001Y122182I-6J-1069D01*
G03X32892Y122147I50J-342D01*
G03X32842Y122095I52J-100D01*
G03X32845Y122034I58J-28D01*
G02Y121921I-90J-56D01*
G02X32746Y121881I-77J49D01*
G02X32534Y121978I145J598D01*
G02X32353Y122153I482J679D01*
G02X32170Y122435I1758J1341D01*
G02X32189Y122576I106J57D01*
G02X32355Y122653I181J-173D01*
G02X32845Y122668I491J-8034D01*
G02X33190Y122656I-7J-5179D01*
G02X33400Y122615I-55J-839D01*
G02X33515Y122541I-86J-261D01*
G02X33558Y122430I-120J-110D01*
G01X33368Y121368D02*
G02X33441Y121269I-292J-291D01*
G02X33503Y121128I-884J-473D01*
G02X33544Y120969I-1048J-355D01*
G02X33558Y120817I-819J-152D01*
G02X33369Y120448I-454J-1D01*
G02X32908Y120306I-442J617D01*
G02X32411Y120466I25J930D01*
G02X32154Y120852I339J504D01*
G02X32234Y121201I433J84D01*
G02X32569Y121464I655J-489D01*
G02X33012Y121535I364J-852D01*
G02X33368Y121368I-51J-572D01*
G01X32449Y120925D02*
G03X32478Y120864I78J0D01*
G03X32565Y120813I213J263D01*
G03X32694Y120778I217J546D01*
G03X32845Y120766I154J983D01*
G03X32997Y120778I-3J1001D01*
G03X33125Y120813I-89J576D01*
G03X33213Y120864I-125J317D01*
G03X33242Y120925I-49J61D01*
G03X33213Y120985I-77J0D01*
G03X33125Y121036I-213J-266D01*
G03X32997Y121071I-217J-541D01*
G03X32845Y121083I-155J-989D01*
G03X32694Y121071I3J-995D01*
G03X32565Y121036I88J-581D01*
G03X32478Y120985I126J-314D01*
G03X32449Y120925I48J-60D01*
G01X33368Y119942D02*
G02X33441Y119843I-292J-291D01*
G02X33503Y119701I-890J-473D01*
G02X33544Y119543I-1041J-354D01*
G02X33558Y119390I-825J-153D01*
G02X33369Y119022I-453J0D01*
G02X32908Y118880I-442J617D01*
G02X32411Y119039I24J930D01*
G02X32154Y119425I339J504D01*
G02X32234Y119774I433J84D01*
G02X32569Y120038I657J-489D01*
G02X33012Y120108I362J-852D01*
G02X33368Y119942I-50J-572D01*
G01X32449Y119498D02*
G03X32478Y119437I78J0D01*
G03X32565Y119386I213J263D01*
G03X32694Y119351I217J546D01*
G03X32845Y119340I148J983D01*
G03X32997Y119351I4J1001D01*
G03X33125Y119386I-89J576D01*
G03X33213Y119437I-125J317D01*
G03X33242Y119498I-49J61D01*
G03X33213Y119559I-78J0D01*
G03X33125Y119610I-213J-266D01*
G03X32997Y119645I-217J-541D01*
G03X32845Y119657I-155J-989D01*
G03X32694Y119645I3J-995D01*
G03X32565Y119610I88J-581D01*
G03X32478Y119559I126J-314D01*
G03X32449Y119498I49J-61D01*
G01X33558Y118151D02*
G02X33530Y118052I-185J-1D01*
G02X33451Y117976I-196J125D01*
G02X33323Y117929I-197J339D01*
G02X33153Y117913I-173J932D01*
G03X33001Y117902I1J-1070D01*
G03X32892Y117868I47J-341D01*
G03X32842Y117816I52J-100D01*
G03X32845Y117755I58J-28D01*
G02Y117642I-90J-56D01*
G02X32746Y117602I-77J49D01*
G02X32534Y117698I143J597D01*
G02X32353Y117874I485J680D01*
G02X32170Y118156I1758J1341D01*
G02X32189Y118297I106J57D01*
G02X32355Y118374I181J-173D01*
G02X32845Y118389I491J-8034D01*
G02X33190Y118377I-7J-5179D01*
G02X33400Y118336I-55J-839D01*
G02X33515Y118261I-88J-261D01*
G02X33558Y118151I-119J-110D01*
G01X32449Y116645D02*
G03X32478Y116585I77J0D01*
G03X32565Y116533I216J262D01*
G03X32694Y116498I217J546D01*
G03X32845Y116487I148J983D01*
G03X32997Y116498I4J1001D01*
G03X33125Y116533I-89J576D01*
G03X33213Y116585I-128J318D01*
G03X33242Y116645I-48J60D01*
G03X33213Y116706I-78J0D01*
G03X33125Y116757I-213J-266D01*
G03X32997Y116792I-217J-541D01*
G03X32845Y116804I-155J-989D01*
G03X32694Y116792I3J-995D01*
G03X32565Y116757I88J-581D01*
G03X32478Y116706I126J-314D01*
G03X32449Y116645I49J-61D01*
G01X33308Y117183D02*
G02X33485Y117018I-116J-302D01*
G02X33551Y116726I-630J-296D01*
G02X33489Y116405I-849J-2D01*
G02X33311Y116162I-571J231D01*
G02X33019Y116049I-314J378D01*
G02X32640Y116104I-45J1027D01*
G02X32311Y116292I327J954D01*
G02X32156Y116559I305J355D01*
G02X32211Y116887I468J90D01*
G02X32474Y117143I584J-337D01*
G02X32878Y117254I441J-815D01*
G02X33308Y117183I43J-1078D01*
G54D11*
G01X34000Y10200D02*
Y8800D01*
G01X35000Y10200D02*
Y8800D01*
X34000Y9500D01*
X35000Y10200D01*
G01X147500Y112300D02*
Y113700D01*
G01X146500Y112300D02*
Y113700D01*
X147500Y113000D01*
X146500Y112300D01*
G54D12*
G01X27500Y15500D02*
X35000D01*
Y27500D01*
X27000D01*
Y15500D01*
X27500D01*
G01X9383Y19120D02*
X9575Y18810D01*
X9805Y18603D01*
X10073Y18500D01*
X10380Y18603D01*
X10610Y18810D01*
X10840Y19120D01*
X10917Y19533D01*
Y21600D01*
G01X13250Y18500D02*
Y21600D01*
X12790Y20980D01*
G01Y18500D02*
X13710D01*
G01X29793Y31042D02*
X29563Y31197D01*
X29295Y31300D01*
X28988D01*
X28643Y31145D01*
X28375Y30887D01*
X28183Y30577D01*
X28030Y30060D01*
X27992Y29595D01*
X28068Y29130D01*
X28183Y28820D01*
X28413Y28510D01*
X28682Y28303D01*
X28950Y28200D01*
X29218D01*
X29487Y28303D01*
X29717Y28458D01*
X29908Y28665D01*
G01X32050Y28200D02*
Y31300D01*
X31590Y30680D01*
G01Y28200D02*
X32510D01*
G01X17417Y25000D02*
X17000Y26500D01*
X16583Y25000D01*
G01X15033Y25125D02*
X15133Y25050D01*
X15250Y25000D01*
X15383D01*
X15533Y25075D01*
X15650Y25200D01*
X15733Y25350D01*
X15800Y25600D01*
X15817Y25825D01*
X15783Y26050D01*
X15733Y26200D01*
X15633Y26350D01*
X15517Y26450D01*
X15400Y26500D01*
X15283D01*
X15167Y26450D01*
X15067Y26375D01*
X14983Y26275D01*
G01X13433Y25125D02*
X13533Y25050D01*
X13650Y25000D01*
X13783D01*
X13933Y25075D01*
X14050Y25200D01*
X14133Y25350D01*
X14200Y25600D01*
X14217Y25825D01*
X14183Y26050D01*
X14133Y26200D01*
X14033Y26350D01*
X13917Y26450D01*
X13800Y26500D01*
X13683D01*
X13567Y26450D01*
X13467Y26375D01*
X13383Y26275D01*
G01X34500Y43500D02*
Y51500D01*
X21500D01*
Y43000D01*
X34500D01*
Y43500D01*
G01X19000D02*
Y51500D01*
X6000D01*
Y43000D01*
X19000D01*
Y43500D01*
G01X41000Y33000D02*
Y41000D01*
X28000D01*
Y32500D01*
X41000D01*
Y33000D01*
G01X26383Y52400D02*
Y55500D01*
X27342D01*
X27648Y55345D01*
X27840Y55138D01*
X27917Y54725D01*
X27840Y54312D01*
X27610Y54053D01*
X27342Y53898D01*
X26383D01*
G01X27342D02*
X27917Y52400D01*
G01X29522Y54983D02*
X29752Y55293D01*
X30020Y55448D01*
X30327Y55500D01*
X30710Y55397D01*
X30978Y55138D01*
X31055Y54828D01*
X31017Y54518D01*
X30863Y54260D01*
X30097Y53743D01*
X29752Y53382D01*
X29522Y52865D01*
X29445Y52400D01*
X31055D01*
G01X10383Y52900D02*
Y56000D01*
X11342D01*
X11648Y55845D01*
X11840Y55638D01*
X11917Y55225D01*
X11840Y54812D01*
X11610Y54553D01*
X11342Y54398D01*
X10383D01*
G01X11342D02*
X11917Y52900D01*
G01X13407Y53520D02*
X13637Y53158D01*
X13943Y52952D01*
X14288Y52900D01*
X14595Y52952D01*
X14902Y53210D01*
X15093Y53520D01*
X15132Y53830D01*
X15055Y54192D01*
X14787Y54450D01*
X14518Y54553D01*
X14173D01*
G01X14518D02*
X14748Y54708D01*
X14940Y54967D01*
X15017Y55277D01*
X14940Y55587D01*
X14748Y55845D01*
X14403Y56000D01*
X14058Y55948D01*
X13713Y55742D01*
G01X14600Y71117D02*
X17700D01*
Y70158D01*
X17545Y69852D01*
X17338Y69660D01*
X16925Y69583D01*
X16512Y69660D01*
X16253Y69890D01*
X16098Y70158D01*
Y71117D01*
G01Y70158D02*
X14600Y69583D01*
G01X15065Y68093D02*
X14807Y67863D01*
X14652Y67595D01*
X14600Y67250D01*
X14703Y66905D01*
X14910Y66637D01*
X15272Y66445D01*
X15685Y66407D01*
X16098Y66483D01*
X16357Y66675D01*
X16563Y66943D01*
X16615Y67212D01*
X16563Y67480D01*
X16357Y67825D01*
X17700Y67710D01*
Y66675D01*
G01X13500Y72500D02*
X5500D01*
Y59500D01*
X14000D01*
Y72500D01*
X13500D01*
G01X31500Y71500D02*
X23500D01*
Y58500D01*
X32000D01*
Y71500D01*
X31500D01*
G01X15100Y80617D02*
X18200D01*
Y79658D01*
X18045Y79352D01*
X17838Y79160D01*
X17425Y79083D01*
X17012Y79160D01*
X16753Y79390D01*
X16598Y79658D01*
Y80617D01*
G01Y79658D02*
X15100Y79083D01*
G01Y76827D02*
X15772Y76750D01*
X16340Y76635D01*
X16857Y76482D01*
X17425Y76290D01*
X18200Y75983D01*
Y77517D01*
G01X14000Y89000D02*
X6000D01*
Y76000D01*
X14500D01*
Y89000D01*
X14000D01*
G01X28600Y80693D02*
X31700D01*
Y79927D01*
X31545Y79620D01*
X31338Y79390D01*
X31028Y79198D01*
X30667Y79045D01*
X30150Y79007D01*
X29633Y79045D01*
X29272Y79198D01*
X28962Y79390D01*
X28755Y79620D01*
X28600Y79927D01*
Y80693D01*
G01X31183Y77478D02*
X31493Y77248D01*
X31648Y76980D01*
X31700Y76673D01*
X31597Y76290D01*
X31338Y76022D01*
X31028Y75945D01*
X30718Y75983D01*
X30460Y76137D01*
X29943Y76903D01*
X29582Y77248D01*
X29065Y77478D01*
X28600Y77555D01*
Y75945D01*
G01X11383Y108500D02*
Y111600D01*
X12342D01*
X12648Y111445D01*
X12840Y111238D01*
X12917Y110825D01*
X12840Y110412D01*
X12610Y110153D01*
X12342Y109998D01*
X11383D01*
G01X12342D02*
X12917Y108500D01*
G01X14522Y111083D02*
X14752Y111393D01*
X15020Y111548D01*
X15327Y111600D01*
X15710Y111497D01*
X15978Y111238D01*
X16055Y110928D01*
X16017Y110618D01*
X15863Y110360D01*
X15097Y109843D01*
X14752Y109482D01*
X14522Y108965D01*
X14445Y108500D01*
X16055D01*
G01X17507Y109120D02*
X17737Y108758D01*
X18043Y108552D01*
X18388Y108500D01*
X18695Y108552D01*
X19002Y108810D01*
X19193Y109120D01*
X19232Y109430D01*
X19155Y109792D01*
X18887Y110050D01*
X18618Y110153D01*
X18273D01*
G01X18618D02*
X18848Y110308D01*
X19040Y110567D01*
X19117Y110877D01*
X19040Y111187D01*
X18848Y111445D01*
X18503Y111600D01*
X18158Y111548D01*
X17813Y111342D01*
G01X29000Y138500D02*
X37000D01*
Y151500D01*
X28500D01*
Y138500D01*
X29000D01*
G01X15100Y130817D02*
X18200D01*
Y129858D01*
X18045Y129552D01*
X17838Y129360D01*
X17425Y129283D01*
X17012Y129360D01*
X16753Y129590D01*
X16598Y129858D01*
Y130817D01*
G01Y129858D02*
X15100Y129283D01*
G01X17683Y127678D02*
X17993Y127448D01*
X18148Y127180D01*
X18200Y126873D01*
X18097Y126490D01*
X17838Y126222D01*
X17528Y126145D01*
X17218Y126183D01*
X16960Y126337D01*
X16443Y127103D01*
X16082Y127448D01*
X15565Y127678D01*
X15100Y127755D01*
Y126145D01*
G01Y123390D02*
X18200D01*
X15978Y124808D01*
Y122892D01*
G01X14000Y134700D02*
X6000D01*
Y121700D01*
X14500D01*
Y134700D01*
X14000D01*
G01X13900Y150900D02*
X5900D01*
Y137900D01*
X14400D01*
Y150900D01*
X13900D01*
G01X27192Y119892D02*
G02X27374Y119561I-908J-715D01*
G02X27421Y119213I-814J-287D01*
G02X27325Y118859I-958J70D01*
G02X27093Y118508I-1473J721D01*
G02X26664Y118263I-562J486D01*
G02X26170Y118337I-138J763D01*
G02X25778Y118713I436J846D01*
G02X25634Y119260I965J546D01*
G02X25788Y119843I1182J0D01*
G02X26200Y120205I726J-411D01*
G02X26727Y120221I285J-702D01*
G02X27192Y119892I-320J-945D01*
G01X45161Y137249D02*
G03X44846Y137003I300J-709D01*
G03X44576Y136544I1825J-1382D01*
G03X44416Y136023I2172J-952D01*
G03X44430Y135583I1016J-188D01*
G03X44500Y135404I727J181D01*
G03X44634Y135191I1889J1040D01*
G03X44804Y134979I1955J1394D01*
G03X44987Y134802I1371J1234D01*
G01X45445Y134417D01*
Y130592D01*
X38947D01*
Y132653D01*
G03X38939Y133777I-76397J18D01*
G03X38903Y134330I-5535J-83D01*
G03X38835Y134625I-1330J-151D01*
G03X38709Y134713I-125J-45D01*
G03X38584Y134625I0J-133D01*
G03X38516Y134330I1262J-446D01*
G03X38480Y133777I5499J-636D01*
G03X38472Y132653I76389J-1106D01*
G01Y130592D01*
X34985D01*
Y132574D01*
G03X34977Y133651I-69650J21D01*
G03X34941Y134185I-5150J-79D01*
G03X34872Y134468I-1219J-147D01*
G03X34747Y134555I-125J-47D01*
G03X34623Y134469I0J-133D01*
G03X34554Y134188I1128J-426D01*
G03X34518Y133659I5020J-607D01*
G03X34509Y132592I68149J-1108D01*
G01Y130630D01*
X33800Y130452D01*
G03X32891Y130043I697J-2764D01*
G03X32088Y129315I2224J-3260D01*
G03X31530Y128418I2878J-2412D01*
G03X31340Y127513I2055J-904D01*
G01Y126957D01*
X29398Y126912D01*
G03X28357Y126880I1399J-62470D01*
G03X27827Y126831I202J-5078D01*
G03X27542Y126756I184J-1279D01*
G03X27457Y126630I50J-125D01*
G03X27542Y126505I134J0D01*
G03X27827Y126429I474J1204D01*
G03X28357Y126381I723J5030D01*
G03X29398Y126348I2500J62437D01*
G01X31340Y126303D01*
Y119498D01*
X29672D01*
G02X28608Y119506I0J70807D01*
G02X28212Y119550I31J2081D01*
G02X28002Y119662I89J420D01*
G02X27859Y119878I412J428D01*
G03X27472Y120435I-1315J-500D01*
G03X26882Y120723I-822J-937D01*
G03X26216Y120675I-243J-1276D01*
G03X25622Y120303I510J-1475D01*
G03X25297Y119848I1201J-1202D01*
G03X25160Y119336I1239J-606D01*
G03X25226Y118814I1353J-94D01*
G03X25487Y118331I1520J509D01*
G03X25692Y118115I1261J991D01*
G03X25896Y117992I449J514D01*
G03X26161Y117931I348J905D01*
G03X26572Y117913I415J4767D01*
G03X27084Y117967I-2J2469D01*
G03X27494Y118128I-279J1313D01*
G03X27758Y118374I-436J733D01*
G03X27853Y118679I-440J304D01*
G02X27925Y118767I90J0D01*
G02X28265Y118820I705J-3403D01*
G02X28789Y118854I676J-6365D01*
G02X29596Y118864I820J-33596D01*
G01X31340D01*
Y115070D01*
X29490Y115026D01*
G03X28629Y114995I864J-35970D01*
G03X28061Y114945I357J-7303D01*
G03X27682Y114880I529J-4219D01*
G03X27575Y114783I32J-143D01*
G03X27630Y114684I73J-24D01*
G03X27957Y114627I563J2261D01*
G03X28529Y114593I694J6843D01*
G03X29543Y114584I1036J59643D01*
G01X31577Y114583D01*
X31950Y114035D01*
G03X32350Y113610I1539J1047D01*
G03X33021Y113154I4083J5286D01*
G03X33728Y112788I3449J5796D01*
G03X34224Y112683I495J1115D01*
G02X34380Y112591I-1J-179D01*
G02X34465Y112336I-614J-346D01*
G02X34502Y111798I-4565J-584D01*
G02X34509Y110464I-122483J-1310D01*
G03X34518Y109261I87696J55D01*
G03X34553Y108662I6594J85D01*
G03X34619Y108337I1723J181D01*
G03X34743Y108245I124J38D01*
G03X34867Y108336I0J131D01*
G03X34940Y108663I-1724J557D01*
G03X34988Y109258I-6460J821D01*
G03X35020Y110425I-79583J2766D01*
G01X35064Y112604D01*
X38353Y112647D01*
X41642Y112689D01*
Y110784D01*
G02X41633Y109813I-52787J4D01*
G02X41597Y109273I-5818J117D01*
G02X41537Y108961I-1940J211D01*
G02X41428Y108879I-109J31D01*
G03X41030Y108703I1J-539D01*
G03X40721Y108204I1166J-1067D01*
G03X40589Y107559I1881J-721D01*
G03X40694Y106968I1402J-56D01*
G03X40907Y106594I1594J660D01*
G03X41179Y106355I706J529D01*
G03X41552Y106226I541J960D01*
G03X42079Y106185I528J3380D01*
G03X42620Y106276I1J1646D01*
G03X43036Y106540I-357J1022D01*
G03X43295Y106962I-784J771D01*
G03X43385Y107513I-1647J552D01*
G03X43342Y108033I-3186J-2D01*
G03X43208Y108403I-1055J-173D01*
G03X42964Y108666I-727J-429D01*
G03X42591Y108856I-878J-1263D01*
G01X42106Y109025D01*
X42151Y110814D01*
X42196Y112604D01*
X43979Y112649D01*
X45762Y112693D01*
Y110549D01*
G03X45770Y109376I83803J-15D01*
G03X45806Y108801I5978J86D01*
G03X45874Y108494I1453J161D01*
G03X46000Y108404I126J43D01*
G03X46126Y108494I0J133D01*
G03X46194Y108798I-1356J463D01*
G03X46230Y109368I-5844J655D01*
G03X46238Y110531I-82159J1147D01*
G01Y112658D01*
X46704Y112760D01*
G03X47468Y113075I-511J2324D01*
G03X48169Y113660I-1881J2967D01*
G03X48749Y114463I-3053J2816D01*
G03X49154Y115417I-4357J2413D01*
G02X49282Y115566I235J-72D01*
G02X49549Y115647I389J-803D01*
G02X50053Y115686I569J-4081D01*
G02X51150Y115694I1070J-71500D01*
G02X52393Y115687I34J-104276D01*
G02X52829Y115644I-29J-2524D01*
G02X53056Y115530I-87J-456D01*
G02X53208Y115308I-390J-430D01*
G03X53395Y114991I1009J381D01*
G03X53675Y114764I754J644D01*
G03X54054Y114629I615J1128D01*
G03X54534Y114585I478J2572D01*
G03X54822Y114611I-1J1615D01*
G03X55055Y114689I-151J837D01*
G03X55268Y114836I-437J861D01*
G03X55495Y115073I-1665J1822D01*
G03X55803Y115564I-1578J1332D01*
G03X55899Y116050I-1024J455D01*
G03X55776Y116522I-1080J-30D01*
G03X55442Y116974I-1651J-870D01*
G03X54845Y117348I-1110J-1109D01*
G03X54157Y117413I-478J-1382D01*
G03X53555Y117157I185J-1270D01*
G03X53188Y116646I680J-876D01*
G01X53022Y116170D01*
X49249D01*
Y121083D01*
X51309D01*
G03X52433Y121091I18J76397D01*
G03X52987Y121127I-82J5545D01*
G03X53282Y121196I-156J1331D01*
G03X53370Y121321I-45J125D01*
G03X53282Y121446I-133J0D01*
G03X52987Y121514I-446J-1262D01*
G03X52433Y121550I-636J-5509D01*
G03X51309Y121558I-1106J-76389D01*
G01X49249D01*
Y127106D01*
X50992D01*
G03X52070Y127113I19J80009D01*
G03X52478Y127152I-30J2466D01*
G03X52663Y127249I-64J347D01*
G03X52736Y127423I-172J175D01*
G03X52661Y127597I-239J0D01*
G03X52468Y127693I-256J-273D01*
G03X52044Y127732I-456J-2633D01*
G03X50913Y127740I-1197J-89253D01*
G02X49832Y127747I-44J76752D01*
G02X49383Y127785I44J3186D01*
G02X49170Y127872I79J498D01*
G02X49091Y128026I109J153D01*
G03X49062Y128182I-441J-1D01*
G03X48950Y128449I-3910J-1483D01*
G03X48796Y128755I-4338J-1991D01*
G03X48613Y129064I-5021J-2765D01*
G03X48341Y129443I-3407J-2158D01*
G03X48059Y129736I-1828J-1477D01*
G03X47727Y129978I-1576J-1813D01*
G03X47306Y130203I-2261J-3724D01*
G03X46973Y130351I-4646J-10004D01*
G03X46661Y130476I-3145J-7397D01*
G03X46397Y130571I-2868J-7557D01*
G03X46277Y130591I-122J-364D01*
G02X46179Y130671I1J101D01*
G02X46123Y131028I3173J681D01*
G02X46088Y131607I7172J724D01*
G02X46079Y132574I50638J955D01*
G02X46088Y133577I56289J-4D01*
G02X46123Y134141I6434J-116D01*
G02X46183Y134472I2302J-246D01*
G02X46289Y134555I106J-27D01*
G03X46393Y134579I0J236D01*
G03X46539Y134662I-578J1186D01*
G03X46697Y134781I-899J1358D01*
G03X46844Y134922I-1197J1395D01*
G03X47092Y135342I-805J759D01*
G03X47190Y135909I-1991J636D01*
G03X47130Y136482I-2093J70D01*
G03X46911Y136919I-1080J-268D01*
G03X46595Y137164I-685J-557D01*
G03X46119Y137315I-858J-1879D01*
G03X45602Y137350I-406J-2162D01*
G03X45161Y137249I66J-1301D01*
G01X14850Y154175D02*
X14933Y154500D01*
G01X15150D02*
X15067Y154175D01*
G01X16250Y153200D02*
X16383Y153075D01*
X16533Y153000D01*
X16667D01*
X16800Y153075D01*
X16900Y153200D01*
X16950Y153375D01*
X16917Y153550D01*
X16833Y153700D01*
X16683Y153800D01*
X16483Y153850D01*
X16367Y153950D01*
X16317Y154125D01*
X16350Y154300D01*
X16433Y154425D01*
X16550Y154500D01*
X16667D01*
X16783Y154450D01*
X16883Y154325D01*
G01X17900Y152500D02*
Y154000D01*
G01Y153775D02*
X17983Y153900D01*
X18067Y153975D01*
X18200Y154000D01*
X18317Y153975D01*
X18433Y153850D01*
X18483Y153675D01*
X18500Y153500D01*
X18483Y153325D01*
X18433Y153150D01*
X18333Y153050D01*
X18200Y153000D01*
X18083Y153025D01*
X17967Y153100D01*
X17900Y153200D01*
G01X19800Y153000D02*
Y154500D01*
G01X21400Y154000D02*
Y153000D01*
G01Y154400D02*
X21367Y154425D01*
Y154475D01*
X21400Y154500D01*
X21433Y154475D01*
Y154425D01*
X21400Y154400D01*
G01X23000Y154500D02*
Y153000D01*
G01X22767Y154000D02*
X23233D01*
G01X24600Y154500D02*
Y153000D01*
G01X24367Y154000D02*
X24833D01*
G01X26200D02*
Y153000D01*
G01Y154400D02*
X26167Y154425D01*
Y154475D01*
X26200Y154500D01*
X26233Y154475D01*
Y154425D01*
X26200Y154400D01*
G01X27517Y153000D02*
Y154000D01*
G01Y153750D02*
X27583Y153875D01*
X27683Y153975D01*
X27817Y154000D01*
X27933Y153975D01*
X28033Y153875D01*
X28083Y153700D01*
Y153000D01*
G01X29167Y152625D02*
X29283Y152525D01*
X29417Y152500D01*
X29533Y152525D01*
X29633Y152650D01*
X29700Y152825D01*
Y154000D01*
G01Y153800D02*
X29633Y153900D01*
X29533Y153975D01*
X29417Y154000D01*
X29283Y153950D01*
X29200Y153850D01*
X29133Y153675D01*
X29100Y153500D01*
X29117Y153350D01*
X29183Y153175D01*
X29283Y153050D01*
X29417Y153000D01*
X29517Y153025D01*
X29633Y153125D01*
X29700Y153225D01*
G01X32233Y153300D02*
X32333Y153125D01*
X32467Y153025D01*
X32617Y153000D01*
X32750Y153025D01*
X32883Y153150D01*
X32967Y153300D01*
X32983Y153450D01*
X32950Y153625D01*
X32833Y153750D01*
X32717Y153800D01*
X32567D01*
G01X32717D02*
X32817Y153875D01*
X32900Y154000D01*
X32933Y154150D01*
X32900Y154300D01*
X32817Y154425D01*
X32667Y154500D01*
X32517Y154475D01*
X32367Y154375D01*
G01X34400Y153000D02*
Y154500D01*
X33783Y153425D01*
X34617D01*
G01X35383Y154500D02*
X35800Y153000D01*
X36217Y154500D01*
G01X39000Y154000D02*
Y153000D01*
G01Y154400D02*
X38967Y154425D01*
Y154475D01*
X39000Y154500D01*
X39033Y154475D01*
Y154425D01*
X39000Y154400D01*
G01X40317Y153000D02*
Y154000D01*
G01Y153750D02*
X40383Y153875D01*
X40483Y153975D01*
X40617Y154000D01*
X40733Y153975D01*
X40833Y153875D01*
X40883Y153700D01*
Y153000D01*
G01X43517D02*
Y154500D01*
G01Y153775D02*
X43600Y153900D01*
X43683Y153975D01*
X43817Y154000D01*
X43917Y153975D01*
X44033Y153875D01*
X44083Y153725D01*
Y153000D01*
G01X45700D02*
Y154000D01*
G01Y153825D02*
X45633Y153925D01*
X45533Y153975D01*
X45417Y154000D01*
X45300Y153950D01*
X45200Y153850D01*
X45133Y153700D01*
X45100Y153500D01*
X45133Y153300D01*
X45200Y153150D01*
X45300Y153050D01*
X45417Y153000D01*
X45533Y153025D01*
X45633Y153100D01*
X45700Y153200D01*
G01X47000Y153000D02*
Y154500D01*
G01X48500Y153000D02*
Y154275D01*
X48533Y154400D01*
X48600Y154475D01*
X48700Y154500D01*
X48800Y154450D01*
X48850Y154325D01*
G01X48650Y153900D02*
X48317D01*
G01X51550Y153175D02*
X51633Y153075D01*
X51750Y153000D01*
X51850D01*
X51950Y153050D01*
X52017Y153125D01*
X52050Y153225D01*
X52033Y153375D01*
X51967Y153450D01*
X51667Y153600D01*
X51600Y153775D01*
X51633Y153900D01*
X51700Y153975D01*
X51800Y154000D01*
X51900Y153975D01*
X52000Y153900D01*
G01X53400Y153000D02*
X53300Y153025D01*
X53200Y153125D01*
X53133Y153300D01*
X53100Y153500D01*
X53133Y153700D01*
X53200Y153875D01*
X53300Y153975D01*
X53400Y154000D01*
X53500Y153975D01*
X53600Y153875D01*
X53667Y153700D01*
X53683Y153500D01*
X53667Y153300D01*
X53600Y153125D01*
X53500Y153025D01*
X53400Y153000D01*
G01X56250Y152550D02*
X56350Y152500D01*
X56483Y152550D01*
X56567Y152650D01*
X56633Y152775D01*
X56733Y153175D01*
X56950Y154000D01*
G01X56417D02*
X56733Y153175D01*
G01X58200Y153000D02*
X58100Y153025D01*
X58000Y153125D01*
X57933Y153300D01*
X57900Y153500D01*
X57933Y153700D01*
X58000Y153875D01*
X58100Y153975D01*
X58200Y154000D01*
X58300Y153975D01*
X58400Y153875D01*
X58467Y153700D01*
X58483Y153500D01*
X58467Y153300D01*
X58400Y153125D01*
X58300Y153025D01*
X58200Y153000D01*
G01X59517Y154000D02*
Y153300D01*
X59583Y153125D01*
X59683Y153025D01*
X59800Y153000D01*
X59917Y153025D01*
X60017Y153125D01*
X60083Y153300D01*
G01Y153000D02*
Y154000D01*
G01X61167Y153000D02*
Y154000D01*
G01Y153800D02*
X61250Y153900D01*
X61333Y153975D01*
X61450Y154000D01*
X61533Y153975D01*
X61633Y153900D01*
G01X64867Y153875D02*
X64750Y153975D01*
X64650Y154000D01*
X64517Y153950D01*
X64417Y153850D01*
X64350Y153675D01*
X64333Y153500D01*
X64350Y153325D01*
X64417Y153175D01*
X64517Y153050D01*
X64650Y153000D01*
X64767Y153050D01*
X64867Y153150D01*
G01X66200Y154000D02*
Y153000D01*
G01Y154400D02*
X66167Y154425D01*
Y154475D01*
X66200Y154500D01*
X66233Y154475D01*
Y154425D01*
X66200Y154400D01*
G01X67567Y153000D02*
Y154000D01*
G01Y153800D02*
X67650Y153900D01*
X67733Y153975D01*
X67850Y154000D01*
X67933Y153975D01*
X68033Y153900D01*
G01X69667Y153875D02*
X69550Y153975D01*
X69450Y154000D01*
X69317Y153950D01*
X69217Y153850D01*
X69150Y153675D01*
X69133Y153500D01*
X69150Y153325D01*
X69217Y153175D01*
X69317Y153050D01*
X69450Y153000D01*
X69567Y153050D01*
X69667Y153150D01*
G01X70717Y154000D02*
Y153300D01*
X70783Y153125D01*
X70883Y153025D01*
X71000Y153000D01*
X71117Y153025D01*
X71217Y153125D01*
X71283Y153300D01*
G01Y153000D02*
Y154000D01*
G01X72600D02*
Y153000D01*
G01Y154400D02*
X72567Y154425D01*
Y154475D01*
X72600Y154500D01*
X72633Y154475D01*
Y154425D01*
X72600Y154400D01*
G01X74200Y154500D02*
Y153000D01*
G01X73967Y154000D02*
X74433D01*
G01X75550Y153175D02*
X75633Y153075D01*
X75750Y153000D01*
X75850D01*
X75950Y153050D01*
X76017Y153125D01*
X76050Y153225D01*
X76033Y153375D01*
X75967Y153450D01*
X75667Y153600D01*
X75600Y153775D01*
X75633Y153900D01*
X75700Y153975D01*
X75800Y154000D01*
X75900Y153975D01*
X76000Y153900D01*
G01X79300Y154500D02*
Y153000D01*
G01Y153225D02*
X79233Y153100D01*
X79133Y153025D01*
X79017Y153000D01*
X78883Y153050D01*
X78783Y153175D01*
X78717Y153325D01*
X78700Y153500D01*
X78717Y153675D01*
X78783Y153825D01*
X78883Y153950D01*
X79017Y154000D01*
X79133Y153975D01*
X79217Y153925D01*
X79300Y153825D01*
G01X80600Y153000D02*
X80500Y153025D01*
X80400Y153125D01*
X80333Y153300D01*
X80300Y153500D01*
X80333Y153700D01*
X80400Y153875D01*
X80500Y153975D01*
X80600Y154000D01*
X80700Y153975D01*
X80800Y153875D01*
X80867Y153700D01*
X80883Y153500D01*
X80867Y153300D01*
X80800Y153125D01*
X80700Y153025D01*
X80600Y153000D01*
G01X81917D02*
Y154000D01*
G01Y153750D02*
X81983Y153875D01*
X82083Y153975D01*
X82217Y154000D01*
X82333Y153975D01*
X82433Y153875D01*
X82483Y153700D01*
Y153000D01*
G01X83800Y154000D02*
X83967Y154312D01*
Y154500D01*
X83842D01*
Y154312D01*
X83967D01*
G01X85400Y154500D02*
Y153000D01*
G01X85167Y154000D02*
X85633D01*
G01X88317Y153000D02*
Y154500D01*
G01Y153775D02*
X88400Y153900D01*
X88483Y153975D01*
X88617Y154000D01*
X88717Y153975D01*
X88833Y153875D01*
X88883Y153725D01*
Y153000D01*
G01X90500D02*
Y154000D01*
G01Y153825D02*
X90433Y153925D01*
X90333Y153975D01*
X90217Y154000D01*
X90100Y153950D01*
X90000Y153850D01*
X89933Y153700D01*
X89900Y153500D01*
X89933Y153300D01*
X90000Y153150D01*
X90100Y153050D01*
X90217Y153000D01*
X90333Y153025D01*
X90433Y153100D01*
X90500Y153200D01*
G01X91500Y154000D02*
X91800Y153000D01*
X92100Y154000D01*
G01X93150Y153675D02*
X93683D01*
X93633Y153850D01*
X93550Y153950D01*
X93433Y154000D01*
X93317Y153975D01*
X93217Y153900D01*
X93150Y153725D01*
X93117Y153575D01*
Y153425D01*
X93150Y153275D01*
X93233Y153125D01*
X93333Y153025D01*
X93450Y153000D01*
X93567Y153050D01*
X93683Y153200D01*
G01X96600Y154500D02*
Y153000D01*
G01X96367Y154000D02*
X96833D01*
G01X98200Y153000D02*
X98100Y153025D01*
X98000Y153125D01*
X97933Y153300D01*
X97900Y153500D01*
X97933Y153700D01*
X98000Y153875D01*
X98100Y153975D01*
X98200Y154000D01*
X98300Y153975D01*
X98400Y153875D01*
X98467Y153700D01*
X98483Y153500D01*
X98467Y153300D01*
X98400Y153125D01*
X98300Y153025D01*
X98200Y153000D01*
G01X99800Y152950D02*
X99767Y152975D01*
Y153025D01*
X99800Y153050D01*
X99833Y153025D01*
Y152975D01*
X99800Y152950D01*
G01X103000Y153000D02*
Y153675D01*
X102667Y154500D01*
G01X103333D02*
X103000Y153675D01*
G01X104600Y153000D02*
X104500Y153025D01*
X104400Y153125D01*
X104333Y153300D01*
X104300Y153500D01*
X104333Y153700D01*
X104400Y153875D01*
X104500Y153975D01*
X104600Y154000D01*
X104700Y153975D01*
X104800Y153875D01*
X104867Y153700D01*
X104883Y153500D01*
X104867Y153300D01*
X104800Y153125D01*
X104700Y153025D01*
X104600Y153000D01*
G01X105917Y154000D02*
Y153300D01*
X105983Y153125D01*
X106083Y153025D01*
X106200Y153000D01*
X106317Y153025D01*
X106417Y153125D01*
X106483Y153300D01*
G01Y153000D02*
Y154000D01*
G01X107800D02*
X107967Y154312D01*
Y154500D01*
X107842D01*
Y154312D01*
X107967D01*
G01X109167Y153000D02*
Y154000D01*
G01Y153800D02*
X109250Y153900D01*
X109333Y153975D01*
X109450Y154000D01*
X109533Y153975D01*
X109633Y153900D01*
G01X110750Y153675D02*
X111283D01*
X111233Y153850D01*
X111150Y153950D01*
X111033Y154000D01*
X110917Y153975D01*
X110817Y153900D01*
X110750Y153725D01*
X110717Y153575D01*
Y153425D01*
X110750Y153275D01*
X110833Y153125D01*
X110933Y153025D01*
X111050Y153000D01*
X111167Y153050D01*
X111283Y153200D01*
G01X113783Y154000D02*
X113983Y153000D01*
X114200Y154000D01*
X114417Y153000D01*
X114617Y154000D01*
G01X115550Y153675D02*
X116083D01*
X116033Y153850D01*
X115950Y153950D01*
X115833Y154000D01*
X115717Y153975D01*
X115617Y153900D01*
X115550Y153725D01*
X115517Y153575D01*
Y153425D01*
X115550Y153275D01*
X115633Y153125D01*
X115733Y153025D01*
X115850Y153000D01*
X115967Y153050D01*
X116083Y153200D01*
G01X117400Y153000D02*
Y154500D01*
G01X119267Y153875D02*
X119150Y153975D01*
X119050Y154000D01*
X118917Y153950D01*
X118817Y153850D01*
X118750Y153675D01*
X118733Y153500D01*
X118750Y153325D01*
X118817Y153175D01*
X118917Y153050D01*
X119050Y153000D01*
X119167Y153050D01*
X119267Y153150D01*
G01X120600Y153000D02*
X120500Y153025D01*
X120400Y153125D01*
X120333Y153300D01*
X120300Y153500D01*
X120333Y153700D01*
X120400Y153875D01*
X120500Y153975D01*
X120600Y154000D01*
X120700Y153975D01*
X120800Y153875D01*
X120867Y153700D01*
X120883Y153500D01*
X120867Y153300D01*
X120800Y153125D01*
X120700Y153025D01*
X120600Y153000D01*
G01X121700D02*
Y154000D01*
G01Y153725D02*
X121750Y153850D01*
X121833Y153950D01*
X121950Y154000D01*
X122067Y153950D01*
X122150Y153850D01*
X122200Y153725D01*
Y153000D01*
G01Y153725D02*
X122250Y153850D01*
X122333Y153950D01*
X122450Y154000D01*
X122567Y153950D01*
X122650Y153850D01*
X122700Y153700D01*
Y153000D01*
G01X123550Y153675D02*
X124083D01*
X124033Y153850D01*
X123950Y153950D01*
X123833Y154000D01*
X123717Y153975D01*
X123617Y153900D01*
X123550Y153725D01*
X123517Y153575D01*
Y153425D01*
X123550Y153275D01*
X123633Y153125D01*
X123733Y153025D01*
X123850Y153000D01*
X123967Y153050D01*
X124083Y153200D01*
G01X125400Y152950D02*
X125367Y152975D01*
Y153025D01*
X125400Y153050D01*
X125433Y153025D01*
Y152975D01*
X125400Y152950D01*
G01X126850Y154175D02*
X126933Y154500D01*
G01X127150D02*
X127067Y154175D01*
G01X27900Y142383D02*
X24800D01*
Y143342D01*
X24955Y143648D01*
X25162Y143840D01*
X25575Y143917D01*
X25988Y143840D01*
X26247Y143610D01*
X26402Y143342D01*
Y142383D01*
G01Y143342D02*
X27900Y143917D01*
G01X25317Y145522D02*
X25007Y145752D01*
X24852Y146020D01*
X24800Y146327D01*
X24903Y146710D01*
X25162Y146978D01*
X25472Y147055D01*
X25782Y147017D01*
X26040Y146863D01*
X26557Y146097D01*
X26918Y145752D01*
X27435Y145522D01*
X27900Y145445D01*
Y147055D01*
G01X25317Y148622D02*
X25007Y148852D01*
X24852Y149120D01*
X24800Y149427D01*
X24903Y149810D01*
X25162Y150078D01*
X25472Y150155D01*
X25782Y150117D01*
X26040Y149963D01*
X26557Y149197D01*
X26918Y148852D01*
X27435Y148622D01*
X27900Y148545D01*
Y150155D01*
G01X6383Y151900D02*
Y155000D01*
X7342D01*
X7648Y154845D01*
X7840Y154638D01*
X7917Y154225D01*
X7840Y153812D01*
X7610Y153553D01*
X7342Y153398D01*
X6383D01*
G01X7342D02*
X7917Y151900D01*
G01X9522Y154483D02*
X9752Y154793D01*
X10020Y154948D01*
X10327Y155000D01*
X10710Y154897D01*
X10978Y154638D01*
X11055Y154328D01*
X11017Y154018D01*
X10863Y153760D01*
X10097Y153243D01*
X9752Y152882D01*
X9522Y152365D01*
X9445Y151900D01*
X11055D01*
G01X12507Y152365D02*
X12737Y152107D01*
X13005Y151952D01*
X13350Y151900D01*
X13695Y152003D01*
X13963Y152210D01*
X14155Y152572D01*
X14193Y152985D01*
X14117Y153398D01*
X13925Y153657D01*
X13657Y153863D01*
X13388Y153915D01*
X13120Y153863D01*
X12775Y153657D01*
X12890Y155000D01*
X13925D01*
G01X37500Y17000D02*
X45500D01*
Y30000D01*
X37000D01*
Y17000D01*
X37500D01*
G01X58400Y10083D02*
X55300D01*
Y11042D01*
X55455Y11348D01*
X55662Y11540D01*
X56075Y11617D01*
X56488Y11540D01*
X56747Y11310D01*
X56902Y11042D01*
Y10083D01*
G01Y11042D02*
X58400Y11617D01*
G01X58038Y13298D02*
X58297Y13567D01*
X58400Y13873D01*
X58297Y14180D01*
X57987Y14448D01*
X57522Y14640D01*
X57057Y14717D01*
X56488D01*
X56023Y14640D01*
X55610Y14448D01*
X55403Y14218D01*
X55300Y13950D01*
X55403Y13643D01*
X55610Y13413D01*
X55920Y13260D01*
X56333Y13183D01*
X56695Y13260D01*
X57057Y13452D01*
X57263Y13682D01*
X57315Y13950D01*
X57212Y14257D01*
X56953Y14487D01*
X56488Y14717D01*
G01X67600Y19100D02*
X59600D01*
Y6100D01*
X68100D01*
Y19100D01*
X67600D01*
G01X42400Y11593D02*
X45500D01*
Y10827D01*
X45345Y10520D01*
X45138Y10290D01*
X44828Y10098D01*
X44467Y9945D01*
X43950Y9907D01*
X43433Y9945D01*
X43072Y10098D01*
X42762Y10290D01*
X42555Y10520D01*
X42400Y10827D01*
Y11593D01*
G01Y7650D02*
X45500D01*
X44880Y8110D01*
G01X42400D02*
Y7190D01*
G01X45983Y35800D02*
Y38900D01*
X46942D01*
X47248Y38745D01*
X47440Y38538D01*
X47517Y38125D01*
X47440Y37712D01*
X47210Y37453D01*
X46942Y37298D01*
X45983D01*
G01X46942D02*
X47517Y35800D01*
G01X49850D02*
X49620Y35852D01*
X49390Y36058D01*
X49237Y36420D01*
X49160Y36833D01*
X49237Y37247D01*
X49390Y37608D01*
X49620Y37815D01*
X49850Y37867D01*
X50080Y37815D01*
X50310Y37608D01*
X50463Y37247D01*
X50502Y36833D01*
X50463Y36420D01*
X50310Y36058D01*
X50080Y35852D01*
X49850Y35800D01*
G01X53563Y37608D02*
X53295Y37815D01*
X53065Y37867D01*
X52758Y37763D01*
X52528Y37557D01*
X52375Y37195D01*
X52337Y36833D01*
X52375Y36472D01*
X52528Y36162D01*
X52758Y35903D01*
X53065Y35800D01*
X53333Y35903D01*
X53563Y36110D01*
G01X55475Y36162D02*
X55667Y35955D01*
X55935Y35800D01*
X56165D01*
X56395Y35903D01*
X56548Y36058D01*
X56625Y36265D01*
X56587Y36575D01*
X56433Y36730D01*
X55743Y37040D01*
X55590Y37402D01*
X55667Y37660D01*
X55820Y37815D01*
X56050Y37867D01*
X56280Y37815D01*
X56510Y37660D01*
G01X59150Y37867D02*
Y35800D01*
G01Y38693D02*
X59073Y38745D01*
Y38848D01*
X59150Y38900D01*
X59227Y38848D01*
Y38745D01*
X59150Y38693D01*
G01X61598Y35800D02*
Y37867D01*
G01Y37350D02*
X61752Y37608D01*
X61982Y37815D01*
X62288Y37867D01*
X62557Y37815D01*
X62787Y37608D01*
X62902Y37247D01*
Y35800D01*
G01X67607D02*
Y38900D01*
X68373D01*
X68680Y38745D01*
X68910Y38538D01*
X69102Y38228D01*
X69255Y37867D01*
X69293Y37350D01*
X69255Y36833D01*
X69102Y36472D01*
X68910Y36162D01*
X68680Y35955D01*
X68373Y35800D01*
X67607D01*
G01X71013D02*
Y37867D01*
G01Y37453D02*
X71205Y37660D01*
X71397Y37815D01*
X71665Y37867D01*
X71857Y37815D01*
X72087Y37660D01*
G01X75340Y35800D02*
Y37867D01*
G01Y37505D02*
X75187Y37712D01*
X74957Y37815D01*
X74688Y37867D01*
X74420Y37763D01*
X74190Y37557D01*
X74037Y37247D01*
X73960Y36833D01*
X74037Y36420D01*
X74190Y36110D01*
X74420Y35903D01*
X74688Y35800D01*
X74957Y35852D01*
X75187Y36007D01*
X75340Y36213D01*
G01X77213Y35025D02*
X77482Y34818D01*
X77788Y34767D01*
X78057Y34818D01*
X78287Y35077D01*
X78440Y35438D01*
Y37867D01*
G01Y37453D02*
X78287Y37660D01*
X78057Y37815D01*
X77788Y37867D01*
X77482Y37763D01*
X77290Y37557D01*
X77137Y37195D01*
X77060Y36833D01*
X77098Y36523D01*
X77252Y36162D01*
X77482Y35903D01*
X77788Y35800D01*
X78018Y35852D01*
X78287Y36058D01*
X78440Y36265D01*
G01X80850Y35800D02*
X80620Y35852D01*
X80390Y36058D01*
X80237Y36420D01*
X80160Y36833D01*
X80237Y37247D01*
X80390Y37608D01*
X80620Y37815D01*
X80850Y37867D01*
X81080Y37815D01*
X81310Y37608D01*
X81463Y37247D01*
X81502Y36833D01*
X81463Y36420D01*
X81310Y36058D01*
X81080Y35852D01*
X80850Y35800D01*
G01X83375Y36162D02*
X83567Y35955D01*
X83835Y35800D01*
X84065D01*
X84295Y35903D01*
X84448Y36058D01*
X84525Y36265D01*
X84487Y36575D01*
X84333Y36730D01*
X83643Y37040D01*
X83490Y37402D01*
X83567Y37660D01*
X83720Y37815D01*
X83950Y37867D01*
X84180Y37815D01*
X84410Y37660D01*
G01X90150Y38900D02*
Y35800D01*
G01X89268Y38900D02*
X91032D01*
G01X92675Y37195D02*
X93902D01*
X93787Y37557D01*
X93595Y37763D01*
X93327Y37867D01*
X93058Y37815D01*
X92828Y37660D01*
X92675Y37298D01*
X92598Y36988D01*
Y36678D01*
X92675Y36368D01*
X92867Y36058D01*
X93097Y35852D01*
X93365Y35800D01*
X93633Y35903D01*
X93902Y36213D01*
G01X96350Y35800D02*
X96120Y35852D01*
X95890Y36058D01*
X95737Y36420D01*
X95660Y36833D01*
X95737Y37247D01*
X95890Y37608D01*
X96120Y37815D01*
X96350Y37867D01*
X96580Y37815D01*
X96810Y37608D01*
X96963Y37247D01*
X97002Y36833D01*
X96963Y36420D01*
X96810Y36058D01*
X96580Y35852D01*
X96350Y35800D01*
G01X100140Y38900D02*
Y35800D01*
G01Y36265D02*
X99987Y36007D01*
X99757Y35852D01*
X99488Y35800D01*
X99182Y35903D01*
X98952Y36162D01*
X98798Y36472D01*
X98760Y36833D01*
X98798Y37195D01*
X98952Y37505D01*
X99182Y37763D01*
X99488Y37867D01*
X99757Y37815D01*
X99948Y37712D01*
X100140Y37505D01*
G01X102550Y35800D02*
X102320Y35852D01*
X102090Y36058D01*
X101937Y36420D01*
X101860Y36833D01*
X101937Y37247D01*
X102090Y37608D01*
X102320Y37815D01*
X102550Y37867D01*
X102780Y37815D01*
X103010Y37608D01*
X103163Y37247D01*
X103202Y36833D01*
X103163Y36420D01*
X103010Y36058D01*
X102780Y35852D01*
X102550Y35800D01*
G01X105113D02*
Y37867D01*
G01Y37453D02*
X105305Y37660D01*
X105497Y37815D01*
X105765Y37867D01*
X105957Y37815D01*
X106187Y37660D01*
G01X51693Y28742D02*
X51463Y28897D01*
X51195Y29000D01*
X50888D01*
X50543Y28845D01*
X50275Y28587D01*
X50083Y28277D01*
X49930Y27760D01*
X49892Y27295D01*
X49968Y26830D01*
X50083Y26520D01*
X50313Y26210D01*
X50582Y26003D01*
X50850Y25900D01*
X51118D01*
X51387Y26003D01*
X51617Y26158D01*
X51808Y26365D01*
G01X54717Y25900D02*
X53183D01*
Y29000D01*
X54717D01*
G01X54103Y27502D02*
X53183D01*
G01X56322Y25900D02*
Y29000D01*
X57778D01*
G01X57242Y27502D02*
X56322D01*
G01X59422Y28483D02*
X59652Y28793D01*
X59920Y28948D01*
X60227Y29000D01*
X60610Y28897D01*
X60878Y28638D01*
X60955Y28328D01*
X60917Y28018D01*
X60763Y27760D01*
X59997Y27243D01*
X59652Y26882D01*
X59422Y26365D01*
X59345Y25900D01*
X60955D01*
G01X62752Y26933D02*
X63748D01*
G01X65583Y25900D02*
Y29000D01*
X66503D01*
X66810Y28845D01*
X67040Y28483D01*
X67117Y28070D01*
X67040Y27657D01*
X66848Y27347D01*
X66503Y27192D01*
X65583D01*
G01X71822Y28483D02*
X72052Y28793D01*
X72320Y28948D01*
X72627Y29000D01*
X73010Y28897D01*
X73278Y28638D01*
X73355Y28328D01*
X73317Y28018D01*
X73163Y27760D01*
X72397Y27243D01*
X72052Y26882D01*
X71822Y26365D01*
X71745Y25900D01*
X73355D01*
G01X75650Y29000D02*
X75343Y28897D01*
X75113Y28638D01*
X74960Y28328D01*
X74845Y27915D01*
X74807Y27450D01*
X74845Y26985D01*
X74960Y26572D01*
X75113Y26262D01*
X75343Y26003D01*
X75650Y25900D01*
X75957Y26003D01*
X76187Y26262D01*
X76340Y26572D01*
X76455Y26985D01*
X76493Y27450D01*
X76455Y27915D01*
X76340Y28328D01*
X76187Y28638D01*
X75957Y28897D01*
X75650Y29000D01*
G01X78022Y28483D02*
X78252Y28793D01*
X78520Y28948D01*
X78827Y29000D01*
X79210Y28897D01*
X79478Y28638D01*
X79555Y28328D01*
X79517Y28018D01*
X79363Y27760D01*
X78597Y27243D01*
X78252Y26882D01*
X78022Y26365D01*
X77945Y25900D01*
X79555D01*
G01X82310D02*
Y29000D01*
X80892Y26778D01*
X82808D01*
G01X84452Y26933D02*
X85448D01*
G01X87322Y28483D02*
X87552Y28793D01*
X87820Y28948D01*
X88127Y29000D01*
X88510Y28897D01*
X88778Y28638D01*
X88855Y28328D01*
X88817Y28018D01*
X88663Y27760D01*
X87897Y27243D01*
X87552Y26882D01*
X87322Y26365D01*
X87245Y25900D01*
X88855D01*
G01X91150Y29000D02*
X90843Y28897D01*
X90613Y28638D01*
X90460Y28328D01*
X90345Y27915D01*
X90307Y27450D01*
X90345Y26985D01*
X90460Y26572D01*
X90613Y26262D01*
X90843Y26003D01*
X91150Y25900D01*
X91457Y26003D01*
X91687Y26262D01*
X91840Y26572D01*
X91955Y26985D01*
X91993Y27450D01*
X91955Y27915D01*
X91840Y28328D01*
X91687Y28638D01*
X91457Y28897D01*
X91150Y29000D01*
G01X93522Y28483D02*
X93752Y28793D01*
X94020Y28948D01*
X94327Y29000D01*
X94710Y28897D01*
X94978Y28638D01*
X95055Y28328D01*
X95017Y28018D01*
X94863Y27760D01*
X94097Y27243D01*
X93752Y26882D01*
X93522Y26365D01*
X93445Y25900D01*
X95055D01*
G01X96507Y26365D02*
X96737Y26107D01*
X97005Y25952D01*
X97350Y25900D01*
X97695Y26003D01*
X97963Y26210D01*
X98155Y26572D01*
X98193Y26985D01*
X98117Y27398D01*
X97925Y27657D01*
X97657Y27863D01*
X97388Y27915D01*
X97120Y27863D01*
X96775Y27657D01*
X96890Y29000D01*
X97925D01*
G01X46200Y25517D02*
X49300D01*
Y24558D01*
X49145Y24252D01*
X48938Y24060D01*
X48525Y23983D01*
X48112Y24060D01*
X47853Y24290D01*
X47698Y24558D01*
Y25517D01*
G01Y24558D02*
X46200Y23983D01*
G01Y21650D02*
X49300D01*
X48680Y22110D01*
G01X46200D02*
Y21190D01*
G01X35883Y41400D02*
Y44500D01*
X36842D01*
X37148Y44345D01*
X37340Y44138D01*
X37417Y43725D01*
X37340Y43312D01*
X37110Y43053D01*
X36842Y42898D01*
X35883D01*
G01X36842D02*
X37417Y41400D01*
G01X40210D02*
Y44500D01*
X38792Y42278D01*
X40708D01*
G01X54800Y43483D02*
X51700D01*
Y44442D01*
X51855Y44748D01*
X52062Y44940D01*
X52475Y45017D01*
X52888Y44940D01*
X53147Y44710D01*
X53302Y44442D01*
Y43483D01*
G01Y44442D02*
X54800Y45017D01*
G01X54180Y46507D02*
X54542Y46737D01*
X54748Y47043D01*
X54800Y47388D01*
X54748Y47695D01*
X54490Y48002D01*
X54180Y48193D01*
X53870Y48232D01*
X53508Y48155D01*
X53250Y47887D01*
X53147Y47618D01*
Y47273D01*
G01Y47618D02*
X52992Y47848D01*
X52733Y48040D01*
X52423Y48117D01*
X52113Y48040D01*
X51855Y47848D01*
X51700Y47503D01*
X51752Y47158D01*
X51958Y46813D01*
G01X54800Y50910D02*
X51700D01*
X53922Y49492D01*
Y51408D01*
G01X68500Y42900D02*
Y50900D01*
X55500D01*
Y42400D01*
X68500D01*
Y42900D01*
G01X38500Y50183D02*
X35400D01*
Y51142D01*
X35555Y51448D01*
X35762Y51640D01*
X36175Y51717D01*
X36588Y51640D01*
X36847Y51410D01*
X37002Y51142D01*
Y50183D01*
G01Y51142D02*
X38500Y51717D01*
G01Y54050D02*
X38448Y54318D01*
X38293Y54625D01*
X38035Y54817D01*
X37673Y54893D01*
X37312Y54817D01*
X37002Y54587D01*
X36847Y54242D01*
Y53858D01*
X36743Y53628D01*
X36485Y53437D01*
X36123Y53360D01*
X35762Y53475D01*
X35503Y53743D01*
X35400Y54050D01*
X35503Y54357D01*
X35762Y54625D01*
X36123Y54740D01*
X36485Y54663D01*
X36743Y54472D01*
X36847Y54242D01*
Y53858D01*
X37002Y53513D01*
X37312Y53283D01*
X37673Y53207D01*
X38035Y53283D01*
X38293Y53475D01*
X38448Y53782D01*
X38500Y54050D01*
G01X39600Y46300D02*
X47600D01*
Y59300D01*
X39100D01*
Y46300D01*
X39600D01*
G01X32600Y67617D02*
X35700D01*
Y66658D01*
X35545Y66352D01*
X35338Y66160D01*
X34925Y66083D01*
X34512Y66160D01*
X34253Y66390D01*
X34098Y66658D01*
Y67617D01*
G01Y66658D02*
X32600Y66083D01*
G01X33892Y64478D02*
X34253Y64210D01*
X34460Y63980D01*
X34563Y63673D01*
X34460Y63405D01*
X34253Y63213D01*
X33943Y63060D01*
X33582Y63022D01*
X33272Y63060D01*
X32962Y63213D01*
X32703Y63443D01*
X32600Y63712D01*
X32703Y64018D01*
X33013Y64287D01*
X33478Y64440D01*
X33995Y64478D01*
X34667Y64402D01*
X35028Y64287D01*
X35390Y64095D01*
X35648Y63827D01*
X35700Y63558D01*
X35597Y63290D01*
X35338Y63098D01*
G01X34900Y92983D02*
X31800D01*
Y93942D01*
X31955Y94248D01*
X32162Y94440D01*
X32575Y94517D01*
X32988Y94440D01*
X33247Y94210D01*
X33402Y93942D01*
Y92983D01*
G01Y93942D02*
X34900Y94517D01*
G01Y96850D02*
X31800D01*
X32420Y96390D01*
G01X34900D02*
Y97310D01*
G01X33608Y99222D02*
X33247Y99490D01*
X33040Y99720D01*
X32937Y100027D01*
X33040Y100295D01*
X33247Y100487D01*
X33557Y100640D01*
X33918Y100678D01*
X34228Y100640D01*
X34538Y100487D01*
X34797Y100257D01*
X34900Y99988D01*
X34797Y99682D01*
X34487Y99413D01*
X34022Y99260D01*
X33505Y99222D01*
X32833Y99298D01*
X32472Y99413D01*
X32110Y99605D01*
X31852Y99873D01*
X31800Y100142D01*
X31903Y100410D01*
X32162Y100602D01*
G01X43800Y103600D02*
X35800D01*
Y90600D01*
X44300D01*
Y103600D01*
X43800D01*
G01X58850Y83300D02*
X58543Y83352D01*
X58275Y83558D01*
X58045Y83868D01*
X57892Y84230D01*
X57815Y84643D01*
Y85057D01*
X57892Y85470D01*
X58045Y85832D01*
X58275Y86142D01*
X58543Y86348D01*
X58850Y86400D01*
X59157Y86348D01*
X59425Y86142D01*
X59655Y85832D01*
X59808Y85470D01*
X59885Y85057D01*
Y84643D01*
X59808Y84230D01*
X59655Y83868D01*
X59425Y83558D01*
X59157Y83352D01*
X58850Y83300D01*
G01X59157Y84127D02*
X59617Y83300D01*
G01X61298Y83662D02*
X61567Y83403D01*
X61873Y83300D01*
X62180Y83403D01*
X62448Y83713D01*
X62640Y84178D01*
X62717Y84643D01*
Y85212D01*
X62640Y85677D01*
X62448Y86090D01*
X62218Y86297D01*
X61950Y86400D01*
X61643Y86297D01*
X61413Y86090D01*
X61260Y85780D01*
X61183Y85367D01*
X61260Y85005D01*
X61452Y84643D01*
X61682Y84437D01*
X61950Y84385D01*
X62257Y84488D01*
X62487Y84747D01*
X62717Y85212D01*
G01X42620Y108300D02*
G02X42853Y107946I-567J-627D01*
G02X42914Y107485I-1132J-384D01*
G02X42796Y107041I-1166J72D01*
G02X42521Y106730I-708J349D01*
G02X42168Y106581I-589J902D01*
G02X41823Y106586I-162J710D01*
G02X41502Y106753I206J788D01*
G02X41222Y107070I956J1127D01*
G02X41078Y107484I755J495D01*
G02X41143Y107925I952J85D01*
G02X41397Y108278I837J-334D01*
G02X41776Y108450I495J-586D01*
G03X41942Y108477I-2247J14337D01*
G03X42092Y108503I-1618J9779D01*
G03X42218Y108526I-2022J11434D01*
G03X42263Y108539I-63J303D01*
G02X42303Y108535I16J-46D01*
G02X42395Y108478I-738J-1294D01*
G02X42504Y108399I-860J-1301D01*
G02X42620Y108300I-1602J-1995D01*
G01X66500Y151500D02*
X58500D01*
Y138500D01*
X67000D01*
Y151500D01*
X66500D01*
G01X50600Y147617D02*
X53700D01*
Y146658D01*
X53545Y146352D01*
X53338Y146160D01*
X52925Y146083D01*
X52512Y146160D01*
X52253Y146390D01*
X52098Y146658D01*
Y147617D01*
G01Y146658D02*
X50600Y146083D01*
G01X53183Y144478D02*
X53493Y144248D01*
X53648Y143980D01*
X53700Y143673D01*
X53597Y143290D01*
X53338Y143022D01*
X53028Y142945D01*
X52718Y142983D01*
X52460Y143137D01*
X51943Y143903D01*
X51582Y144248D01*
X51065Y144478D01*
X50600Y144555D01*
Y142945D01*
G01X53700Y140650D02*
X53597Y140957D01*
X53338Y141187D01*
X53028Y141340D01*
X52615Y141455D01*
X52150Y141493D01*
X51685Y141455D01*
X51272Y141340D01*
X50962Y141187D01*
X50703Y140957D01*
X50600Y140650D01*
X50703Y140343D01*
X50962Y140113D01*
X51272Y139960D01*
X51685Y139845D01*
X52150Y139807D01*
X52615Y139845D01*
X53028Y139960D01*
X53338Y140113D01*
X53597Y140343D01*
X53700Y140650D01*
G01X49500Y151500D02*
X41500D01*
Y138500D01*
X50000D01*
Y151500D01*
X49500D01*
G01X73000Y123500D02*
Y131500D01*
X60000D01*
Y123000D01*
X73000D01*
Y123500D01*
G01X55267Y116447D02*
G02X55394Y116187I-2414J-1340D01*
G02X55430Y116011I-413J-176D01*
G02X55394Y115836I-446J1D01*
G02X55267Y115575I-2550J1080D01*
G02X54818Y115158I-867J484D01*
G02X54220Y115095I-391J843D01*
G02X53722Y115409I194J859D01*
G02X53528Y115971I715J561D01*
G02X53720Y116566I1022J-1D01*
G02X54216Y116911I735J-527D01*
G02X54813Y116865I235J-852D01*
G02X55267Y116447I-405J-895D01*
G01X46333Y136811D02*
G02X46674Y136407I-531J-794D01*
G02X46764Y135868I-984J-441D01*
G02X46578Y135351I-1090J100D01*
G02X46168Y135006I-822J561D01*
G02X45950Y134928I-567J1242D01*
G02X45773Y134915I-124J474D01*
G02X45595Y134965I57J544D01*
G02X45373Y135091I828J1718D01*
G02X45065Y135405I559J857D01*
G02X44932Y135809I764J475D01*
G02X44996Y136246I983J79D01*
G02X45246Y136655I1254J-485D01*
G02X45474Y136826I546J-490D01*
G02X45770Y136917I442J-909D01*
G02X46076Y136913I140J-977D01*
G02X46333Y136811I-111J-654D01*
G01X36374Y126348D02*
G03X36288Y126063I295J-244D01*
G03X36433Y125807I368J39D01*
G03X36869Y125589I812J1078D01*
G03X37613Y125413I2095J7194D01*
G02X39313Y124892I-1374J-7516D01*
G02X40875Y123986I-3269J-7436D01*
G02X42179Y122772I-4700J-6356D01*
G02X43118Y121341I-5126J-4387D01*
G02X43428Y120586I-5752J-2803D01*
G02X43723Y119609I-14695J-4970D01*
G02X43947Y118647I-14840J-3963D01*
G02X44016Y117970I-3559J-705D01*
G03X44075Y117731I528J4D01*
G03X44235Y117561I381J198D01*
G03X44468Y117493I245J407D01*
G03X44732Y117539I16J689D01*
G03X44841Y117629I-80J207D01*
G03X44914Y117799I-518J323D01*
G03X44955Y118061I-1345J345D01*
G03X44966Y118445I-5813J359D01*
G03X44394Y121208I-7120J-33D01*
G03X42770Y123753I-8497J-3631D01*
G03X40426Y125625I-6787J-6095D01*
G03X37774Y126451I-3296J-5912D01*
G03X37150Y126500I-1789J-18781D01*
G03X36770Y126498I-175J-2798D01*
G03X36526Y126450I79J-1044D01*
G03X36374Y126348I99J-312D01*
G01X36451Y123994D02*
G03X36375Y123941I86J-205D01*
G03X36311Y123851I321J-296D01*
G03X36268Y123740I444J-236D01*
G03X36253Y123625I441J-116D01*
G03X36317Y123366I554J0D01*
G03X36495Y123172I461J245D01*
G03X36818Y123030I599J924D01*
G03X37336Y122923I1311J5041D01*
G02X38002Y122755I-544J-3562D01*
G02X38736Y122442I-2179J-6127D01*
G02X39441Y122033I-3018J-6014D01*
G02X40021Y121575I-2529J-3799D01*
G02X40502Y120999I-2006J-2164D01*
G02X40980Y120142I-7077J-4509D01*
G02X41366Y119210I-7790J-3772D01*
G02X41562Y118388I-4060J-1402D01*
G03X41668Y117891I3514J490D01*
G03X41832Y117606I655J187D01*
G03X42064Y117499I254J245D01*
G03X42374Y117546I47J736D01*
G03X42500Y117646I-96J250D01*
G03X42568Y117815I-350J239D01*
G03X42585Y118104I-1401J227D01*
G03X42553Y118633I-13867J-573D01*
G03X42228Y120076I-5233J-420D01*
G03X41503Y121452I-5980J-2272D01*
G03X40464Y122619I-5307J-3679D01*
G03X39214Y123445I-3616J-4113D01*
G03X38469Y123742I-2520J-5239D01*
G03X37639Y123956I-2305J-7222D01*
G03X36885Y124063I-1363J-6896D01*
G03X36451Y123994I-80J-899D01*
G01X36429Y121415D02*
G03X36343Y121329I155J-241D01*
G03X36292Y121210I306J-202D01*
G03X36281Y121059I508J-113D01*
G03X36308Y120883I1001J63D01*
G03X36390Y120683I737J185D01*
G03X36517Y120549I357J212D01*
G03X36718Y120458I373J557D01*
G03X37045Y120388I849J3169D01*
G02X37692Y120154I-288J-1808D01*
G02X38321Y119666I-1645J-2770D01*
G02X38810Y119039I-2272J-2276D01*
G02X39044Y118394I-1560J-931D01*
G03X39161Y117920I2895J463D01*
G03X39341Y117623I752J253D01*
G03X39585Y117494I319J307D01*
G03X39891Y117515I110J639D01*
G03X40216Y117934I-141J445D01*
G03X40112Y118804I-2534J138D01*
G03X39651Y119826I-4055J-1214D01*
G03X38943Y120672I-3368J-2099D01*
G03X38304Y121132I-2386J-2641D01*
G03X37583Y121437I-1706J-3029D01*
G03X36912Y121546I-764J-2584D01*
G03X36429Y121415I-29J-848D01*
G01X35827Y118898D02*
G03X35527Y118524I396J-625D01*
G03X35389Y117875I2337J-836D01*
G03X35426Y117186I2639J-204D01*
G03X35657Y116685I1110J208D01*
G03X35957Y116518I355J285D01*
G03X36596Y116488I523J4330D01*
G03X37242Y116555I-118J4287D01*
G03X37589Y116736I-115J644D01*
G03X37792Y117120I-520J520D01*
G03X37844Y117756I-3050J569D01*
G03X37766Y118388I-3096J-61D01*
G03X37548Y118760I-701J-161D01*
G03X37233Y118927I-487J-538D01*
G03X36704Y119012I-797J-3272D01*
G03X36169Y119013I-274J-3347D01*
G03X35827Y118898I61J-746D01*
G01X37190Y118032D02*
G02X37249Y117692I-858J-324D01*
G02X37165Y117395I-602J10D01*
G02X36951Y117194I-456J271D01*
G02X36649Y117121I-302J588D01*
G02X36329Y117204I1J661D01*
G02X36097Y117430I295J535D01*
G02X36012Y117746I539J314D01*
G02X36094Y118072I694J-1D01*
G02X36331Y118311I522J-280D01*
G02X36666Y118391I312J-566D01*
G02X36988Y118287I-22J-618D01*
G02X37190Y118032I-297J-443D01*
G01X46000Y121558D02*
Y115615D01*
X34113D01*
X34072Y121399D01*
G02X34061Y123631I439458J3282D01*
G02X34065Y125543I238152J458D01*
G02X34076Y127222I943139J-5339D01*
G02X34107Y127384I462J-4D01*
G02X34260Y127495I161J-61D01*
G02X35378Y127535I2644J-58265D01*
G02X37060Y127556I1587J-59769D01*
G02X40092Y127543I-856J-553256D01*
G01X46000Y127502D01*
Y121558D01*
G01X72983Y19900D02*
Y23000D01*
X73942D01*
X74248Y22845D01*
X74440Y22638D01*
X74517Y22225D01*
X74440Y21812D01*
X74210Y21553D01*
X73942Y21398D01*
X72983D01*
G01X73942D02*
X74517Y19900D01*
G01X76850D02*
Y23000D01*
X76390Y22380D01*
G01Y19900D02*
X77310D01*
G01X79950Y23000D02*
X79643Y22897D01*
X79413Y22638D01*
X79260Y22328D01*
X79145Y21915D01*
X79107Y21450D01*
X79145Y20985D01*
X79260Y20572D01*
X79413Y20262D01*
X79643Y20003D01*
X79950Y19900D01*
X80257Y20003D01*
X80487Y20262D01*
X80640Y20572D01*
X80755Y20985D01*
X80793Y21450D01*
X80755Y21915D01*
X80640Y22328D01*
X80487Y22638D01*
X80257Y22897D01*
X79950Y23000D01*
G01X73500Y6100D02*
X81500D01*
Y19100D01*
X73000D01*
Y6100D01*
X73500D01*
G01X67810Y31100D02*
Y34200D01*
X66392Y31978D01*
X68308D01*
G01X69607Y31720D02*
X69837Y31358D01*
X70143Y31152D01*
X70488Y31100D01*
X70795Y31152D01*
X71102Y31410D01*
X71293Y31720D01*
X71332Y32030D01*
X71255Y32392D01*
X70987Y32650D01*
X70718Y32753D01*
X70373D01*
G01X70718D02*
X70948Y32908D01*
X71140Y33167D01*
X71217Y33477D01*
X71140Y33787D01*
X70948Y34045D01*
X70603Y34200D01*
X70258Y34148D01*
X69913Y33942D01*
G01X72822Y33683D02*
X73052Y33993D01*
X73320Y34148D01*
X73627Y34200D01*
X74010Y34097D01*
X74278Y33838D01*
X74355Y33528D01*
X74317Y33218D01*
X74163Y32960D01*
X73397Y32443D01*
X73052Y32082D01*
X72822Y31565D01*
X72745Y31100D01*
X74355D01*
G01X77417D02*
X75883D01*
Y34200D01*
X77417D01*
G01X76803Y32702D02*
X75883D01*
G01X74000Y147500D02*
Y139500D01*
X87000D01*
Y148000D01*
X74000D01*
Y147500D01*
G01X84617Y122400D02*
Y119300D01*
X83658D01*
X83352Y119455D01*
X83160Y119662D01*
X83083Y120075D01*
X83160Y120488D01*
X83390Y120747D01*
X83658Y120902D01*
X84617D01*
G01X83658D02*
X83083Y122400D01*
G01X80750D02*
Y119300D01*
X81210Y119920D01*
G01Y122400D02*
X80290D01*
G01X77727D02*
X77650Y121728D01*
X77535Y121160D01*
X77382Y120643D01*
X77190Y120075D01*
X76883Y119300D01*
X78417D01*
G01X88500Y123500D02*
Y131500D01*
X75500D01*
Y123000D01*
X88500D01*
Y123500D01*
G01X67600Y147617D02*
X70700D01*
Y146658D01*
X70545Y146352D01*
X70338Y146160D01*
X69925Y146083D01*
X69512Y146160D01*
X69253Y146390D01*
X69098Y146658D01*
Y147617D01*
G01Y146658D02*
X67600Y146083D01*
G01X70183Y144478D02*
X70493Y144248D01*
X70648Y143980D01*
X70700Y143673D01*
X70597Y143290D01*
X70338Y143022D01*
X70028Y142945D01*
X69718Y142983D01*
X69460Y143137D01*
X68943Y143903D01*
X68582Y144248D01*
X68065Y144478D01*
X67600Y144555D01*
Y142945D01*
G01Y140650D02*
X70700D01*
X70080Y141110D01*
G01X67600D02*
Y140190D01*
G01X62383Y131900D02*
Y135000D01*
X63342D01*
X63648Y134845D01*
X63840Y134638D01*
X63917Y134225D01*
X63840Y133812D01*
X63610Y133553D01*
X63342Y133398D01*
X62383D01*
G01X63342D02*
X63917Y131900D01*
G01X66250D02*
Y135000D01*
X65790Y134380D01*
G01Y131900D02*
X66710D01*
G01X68507Y132365D02*
X68737Y132107D01*
X69005Y131952D01*
X69350Y131900D01*
X69695Y132003D01*
X69963Y132210D01*
X70155Y132572D01*
X70193Y132985D01*
X70117Y133398D01*
X69925Y133657D01*
X69657Y133863D01*
X69388Y133915D01*
X69120Y133863D01*
X68775Y133657D01*
X68890Y135000D01*
X69925D01*
G01X61750Y117600D02*
X61443Y117652D01*
X61175Y117858D01*
X60945Y118168D01*
X60792Y118530D01*
X60715Y118943D01*
Y119357D01*
X60792Y119770D01*
X60945Y120132D01*
X61175Y120442D01*
X61443Y120648D01*
X61750Y120700D01*
X62057Y120648D01*
X62325Y120442D01*
X62555Y120132D01*
X62708Y119770D01*
X62785Y119357D01*
Y118943D01*
X62708Y118530D01*
X62555Y118168D01*
X62325Y117858D01*
X62057Y117652D01*
X61750Y117600D01*
G01X62057Y118427D02*
X62517Y117600D01*
G01X64850D02*
Y120700D01*
X64390Y120080D01*
G01Y117600D02*
X65310D01*
G01X67950Y120700D02*
X67643Y120597D01*
X67413Y120338D01*
X67260Y120028D01*
X67145Y119615D01*
X67107Y119150D01*
X67145Y118685D01*
X67260Y118272D01*
X67413Y117962D01*
X67643Y117703D01*
X67950Y117600D01*
X68257Y117703D01*
X68487Y117962D01*
X68640Y118272D01*
X68755Y118685D01*
X68793Y119150D01*
X68755Y119615D01*
X68640Y120028D01*
X68487Y120338D01*
X68257Y120597D01*
X67950Y120700D01*
G01X77883Y148600D02*
Y151700D01*
X78842D01*
X79148Y151545D01*
X79340Y151338D01*
X79417Y150925D01*
X79340Y150512D01*
X79110Y150253D01*
X78842Y150098D01*
X77883D01*
G01X78842D02*
X79417Y148600D01*
G01X81750D02*
Y151700D01*
X81290Y151080D01*
G01Y148600D02*
X82210D01*
G01X84850D02*
X85118Y148652D01*
X85425Y148807D01*
X85617Y149065D01*
X85693Y149427D01*
X85617Y149788D01*
X85387Y150098D01*
X85042Y150253D01*
X84658D01*
X84428Y150357D01*
X84237Y150615D01*
X84160Y150977D01*
X84275Y151338D01*
X84543Y151597D01*
X84850Y151700D01*
X85157Y151597D01*
X85425Y151338D01*
X85540Y150977D01*
X85463Y150615D01*
X85272Y150357D01*
X85042Y150253D01*
X84658D01*
X84313Y150098D01*
X84083Y149788D01*
X84007Y149427D01*
X84083Y149065D01*
X84275Y148807D01*
X84582Y148652D01*
X84850Y148600D01*
G01X96000Y11193D02*
X99100D01*
Y10427D01*
X98945Y10120D01*
X98738Y9890D01*
X98428Y9698D01*
X98067Y9545D01*
X97550Y9507D01*
X97033Y9545D01*
X96672Y9698D01*
X96362Y9890D01*
X96155Y10120D01*
X96000Y10427D01*
Y11193D01*
G01X96620Y8093D02*
X96258Y7863D01*
X96052Y7557D01*
X96000Y7212D01*
X96052Y6905D01*
X96310Y6598D01*
X96620Y6407D01*
X96930Y6368D01*
X97292Y6445D01*
X97550Y6713D01*
X97653Y6982D01*
Y7327D01*
G01Y6982D02*
X97808Y6752D01*
X98067Y6560D01*
X98377Y6483D01*
X98687Y6560D01*
X98945Y6752D01*
X99100Y7097D01*
X99048Y7442D01*
X98842Y7787D01*
G01X103650Y15500D02*
X103343Y15552D01*
X103075Y15758D01*
X102845Y16068D01*
X102692Y16430D01*
X102615Y16843D01*
Y17257D01*
X102692Y17670D01*
X102845Y18032D01*
X103075Y18342D01*
X103343Y18548D01*
X103650Y18600D01*
X103957Y18548D01*
X104225Y18342D01*
X104455Y18032D01*
X104608Y17670D01*
X104685Y17257D01*
Y16843D01*
X104608Y16430D01*
X104455Y16068D01*
X104225Y15758D01*
X103957Y15552D01*
X103650Y15500D01*
G01X103957Y16327D02*
X104417Y15500D01*
G01X106750D02*
Y18600D01*
X106290Y17980D01*
G01Y15500D02*
X107210D01*
G01X104600Y14000D02*
X106600Y12000D01*
G01X105600Y13000D02*
X116600D01*
G01X104600Y12000D02*
X117100D01*
Y14000D01*
X104600D01*
Y12000D01*
G01X107400Y25983D02*
X104300D01*
Y26942D01*
X104455Y27248D01*
X104662Y27440D01*
X105075Y27517D01*
X105488Y27440D01*
X105747Y27210D01*
X105902Y26942D01*
Y25983D01*
G01Y26942D02*
X107400Y27517D01*
G01Y29850D02*
X104300D01*
X104920Y29390D01*
G01X107400D02*
Y30310D01*
G01X106780Y32107D02*
X107142Y32337D01*
X107348Y32643D01*
X107400Y32988D01*
X107348Y33295D01*
X107090Y33602D01*
X106780Y33793D01*
X106470Y33832D01*
X106108Y33755D01*
X105850Y33487D01*
X105747Y33218D01*
Y32873D01*
G01Y33218D02*
X105592Y33448D01*
X105333Y33640D01*
X105023Y33717D01*
X104713Y33640D01*
X104455Y33448D01*
X104300Y33103D01*
X104352Y32758D01*
X104558Y32413D01*
G01X108500Y22100D02*
X116500D01*
Y35100D01*
X108000D01*
Y22100D01*
X108500D01*
G01X118150Y39000D02*
X117843Y39052D01*
X117575Y39258D01*
X117345Y39568D01*
X117192Y39930D01*
X117115Y40343D01*
Y40757D01*
X117192Y41170D01*
X117345Y41532D01*
X117575Y41842D01*
X117843Y42048D01*
X118150Y42100D01*
X118457Y42048D01*
X118725Y41842D01*
X118955Y41532D01*
X119108Y41170D01*
X119185Y40757D01*
Y40343D01*
X119108Y39930D01*
X118955Y39568D01*
X118725Y39258D01*
X118457Y39052D01*
X118150Y39000D01*
G01X118457Y39827D02*
X118917Y39000D01*
G01X120407Y39465D02*
X120637Y39207D01*
X120905Y39052D01*
X121250Y39000D01*
X121595Y39103D01*
X121863Y39310D01*
X122055Y39672D01*
X122093Y40085D01*
X122017Y40498D01*
X121825Y40757D01*
X121557Y40963D01*
X121288Y41015D01*
X121020Y40963D01*
X120675Y40757D01*
X120790Y42100D01*
X121825D01*
G01X116200Y51700D02*
X114200Y49700D01*
G01X115200Y50700D02*
Y39700D01*
G01X114200Y51700D02*
Y39200D01*
X116200D01*
Y51700D01*
X114200D01*
G01X109150Y68000D02*
X108843Y68052D01*
X108575Y68258D01*
X108345Y68568D01*
X108192Y68930D01*
X108115Y69343D01*
Y69757D01*
X108192Y70170D01*
X108345Y70532D01*
X108575Y70842D01*
X108843Y71048D01*
X109150Y71100D01*
X109457Y71048D01*
X109725Y70842D01*
X109955Y70532D01*
X110108Y70170D01*
X110185Y69757D01*
Y69343D01*
X110108Y68930D01*
X109955Y68568D01*
X109725Y68258D01*
X109457Y68052D01*
X109150Y68000D01*
G01X109457Y68827D02*
X109917Y68000D01*
G01X112710D02*
Y71100D01*
X111292Y68878D01*
X113208D01*
G01X114200Y58100D02*
X116200Y60100D01*
G01X115200Y59100D02*
Y70100D01*
G01X116200Y58100D02*
Y70600D01*
X114200D01*
Y58100D01*
X116200D01*
G01X113600Y74500D02*
X115600Y76500D01*
G01X114600Y74500D02*
Y87000D01*
G01X115600Y74500D02*
Y87000D01*
X113600D01*
Y74500D01*
X115600D01*
G01X110150Y108000D02*
X109843Y108052D01*
X109575Y108258D01*
X109345Y108568D01*
X109192Y108930D01*
X109115Y109343D01*
Y109757D01*
X109192Y110170D01*
X109345Y110532D01*
X109575Y110842D01*
X109843Y111048D01*
X110150Y111100D01*
X110457Y111048D01*
X110725Y110842D01*
X110955Y110532D01*
X111108Y110170D01*
X111185Y109757D01*
Y109343D01*
X111108Y108930D01*
X110955Y108568D01*
X110725Y108258D01*
X110457Y108052D01*
X110150Y108000D01*
G01X110457Y108827D02*
X110917Y108000D01*
G01X113250D02*
Y111100D01*
X112790Y110480D01*
G01Y108000D02*
X113710D01*
G01X116350D02*
Y111100D01*
X115890Y110480D01*
G01Y108000D02*
X116810D01*
G01X114000Y90500D02*
X116000Y92500D01*
G01X115000Y91500D02*
Y102500D01*
G01X116000Y90500D02*
Y103000D01*
X114000D01*
Y90500D01*
X116000D01*
G01X109150Y84000D02*
X108843Y84052D01*
X108575Y84258D01*
X108345Y84568D01*
X108192Y84930D01*
X108115Y85343D01*
Y85757D01*
X108192Y86170D01*
X108345Y86532D01*
X108575Y86842D01*
X108843Y87048D01*
X109150Y87100D01*
X109457Y87048D01*
X109725Y86842D01*
X109955Y86532D01*
X110108Y86170D01*
X110185Y85757D01*
Y85343D01*
X110108Y84930D01*
X109955Y84568D01*
X109725Y84258D01*
X109457Y84052D01*
X109150Y84000D01*
G01X109457Y84827D02*
X109917Y84000D01*
G01X112250D02*
X112518Y84052D01*
X112825Y84207D01*
X113017Y84465D01*
X113093Y84827D01*
X113017Y85188D01*
X112787Y85498D01*
X112442Y85653D01*
X112058D01*
X111828Y85757D01*
X111637Y86015D01*
X111560Y86377D01*
X111675Y86738D01*
X111943Y86997D01*
X112250Y87100D01*
X112557Y86997D01*
X112825Y86738D01*
X112940Y86377D01*
X112863Y86015D01*
X112672Y85757D01*
X112442Y85653D01*
X112058D01*
X111713Y85498D01*
X111483Y85188D01*
X111407Y84827D01*
X111483Y84465D01*
X111675Y84207D01*
X111982Y84052D01*
X112250Y84000D01*
G01X111600Y133283D02*
X108500D01*
Y134242D01*
X108655Y134548D01*
X108862Y134740D01*
X109275Y134817D01*
X109688Y134740D01*
X109947Y134510D01*
X110102Y134242D01*
Y133283D01*
G01Y134242D02*
X111600Y134817D01*
G01X110980Y136307D02*
X111342Y136537D01*
X111548Y136843D01*
X111600Y137188D01*
X111548Y137495D01*
X111290Y137802D01*
X110980Y137993D01*
X110670Y138032D01*
X110308Y137955D01*
X110050Y137687D01*
X109947Y137418D01*
Y137073D01*
G01Y137418D02*
X109792Y137648D01*
X109533Y137840D01*
X109223Y137917D01*
X108913Y137840D01*
X108655Y137648D01*
X108500Y137303D01*
X108552Y136958D01*
X108758Y136613D01*
G01X109017Y139522D02*
X108707Y139752D01*
X108552Y140020D01*
X108500Y140327D01*
X108603Y140710D01*
X108862Y140978D01*
X109172Y141055D01*
X109482Y141017D01*
X109740Y140863D01*
X110257Y140097D01*
X110618Y139752D01*
X111135Y139522D01*
X111600Y139445D01*
Y141055D01*
G01X112700Y129400D02*
X120700D01*
Y142400D01*
X112200D01*
Y129400D01*
X112700D01*
G01X96383Y132100D02*
Y135200D01*
X97342D01*
X97648Y135045D01*
X97840Y134838D01*
X97917Y134425D01*
X97840Y134012D01*
X97610Y133753D01*
X97342Y133598D01*
X96383D01*
G01X97342D02*
X97917Y132100D01*
G01X100250D02*
Y135200D01*
X99790Y134580D01*
G01Y132100D02*
X100710D01*
G01X102698Y132462D02*
X102967Y132203D01*
X103273Y132100D01*
X103580Y132203D01*
X103848Y132513D01*
X104040Y132978D01*
X104117Y133443D01*
Y134012D01*
X104040Y134477D01*
X103848Y134890D01*
X103618Y135097D01*
X103350Y135200D01*
X103043Y135097D01*
X102813Y134890D01*
X102660Y134580D01*
X102583Y134167D01*
X102660Y133805D01*
X102852Y133443D01*
X103082Y133237D01*
X103350Y133185D01*
X103657Y133288D01*
X103887Y133547D01*
X104117Y134012D01*
G01X92500Y131000D02*
Y123000D01*
X105500D01*
Y131500D01*
X92500D01*
Y131000D01*
G01X97500Y139000D02*
X99500Y141000D01*
G01X98500Y140000D02*
Y151000D01*
G01X99500Y139000D02*
Y151500D01*
X97500D01*
Y139000D01*
X99500D01*
G01X117600Y143883D02*
X114500D01*
Y144842D01*
X114655Y145148D01*
X114862Y145340D01*
X115275Y145417D01*
X115688Y145340D01*
X115947Y145110D01*
X116102Y144842D01*
Y143883D01*
G01Y144842D02*
X117600Y145417D01*
G01X116980Y146907D02*
X117342Y147137D01*
X117548Y147443D01*
X117600Y147788D01*
X117548Y148095D01*
X117290Y148402D01*
X116980Y148593D01*
X116670Y148632D01*
X116308Y148555D01*
X116050Y148287D01*
X115947Y148018D01*
Y147673D01*
G01Y148018D02*
X115792Y148248D01*
X115533Y148440D01*
X115223Y148517D01*
X114913Y148440D01*
X114655Y148248D01*
X114500Y147903D01*
X114552Y147558D01*
X114758Y147213D01*
G01X114500Y150850D02*
X114603Y150543D01*
X114862Y150313D01*
X115172Y150160D01*
X115585Y150045D01*
X116050Y150007D01*
X116515Y150045D01*
X116928Y150160D01*
X117238Y150313D01*
X117497Y150543D01*
X117600Y150850D01*
X117497Y151157D01*
X117238Y151387D01*
X116928Y151540D01*
X116515Y151655D01*
X116050Y151693D01*
X115585Y151655D01*
X115172Y151540D01*
X114862Y151387D01*
X114603Y151157D01*
X114500Y150850D01*
G01X92650Y148500D02*
X92343Y148552D01*
X92075Y148758D01*
X91845Y149068D01*
X91692Y149430D01*
X91615Y149843D01*
Y150257D01*
X91692Y150670D01*
X91845Y151032D01*
X92075Y151342D01*
X92343Y151548D01*
X92650Y151600D01*
X92957Y151548D01*
X93225Y151342D01*
X93455Y151032D01*
X93608Y150670D01*
X93685Y150257D01*
Y149843D01*
X93608Y149430D01*
X93455Y149068D01*
X93225Y148758D01*
X92957Y148552D01*
X92650Y148500D01*
G01X92957Y149327D02*
X93417Y148500D01*
G01X95022Y151083D02*
X95252Y151393D01*
X95520Y151548D01*
X95827Y151600D01*
X96210Y151497D01*
X96478Y151238D01*
X96555Y150928D01*
X96517Y150618D01*
X96363Y150360D01*
X95597Y149843D01*
X95252Y149482D01*
X95022Y148965D01*
X94945Y148500D01*
X96555D01*
G01X131200Y13617D02*
X134300D01*
Y12658D01*
X134145Y12352D01*
X133938Y12160D01*
X133525Y12083D01*
X133112Y12160D01*
X132853Y12390D01*
X132698Y12658D01*
Y13617D01*
G01Y12658D02*
X131200Y12083D01*
G01Y9750D02*
X134300D01*
X133680Y10210D01*
G01X131200D02*
Y9290D01*
G01Y6650D02*
X134300D01*
X133680Y7110D01*
G01X131200D02*
Y6190D01*
G01X130100Y18900D02*
X122100D01*
Y5900D01*
X130600D01*
Y18900D01*
X130100D01*
G01X146500Y16100D02*
X154500D01*
Y29100D01*
X146000D01*
Y16100D01*
X146500D01*
G01X130150Y20000D02*
X129843Y20052D01*
X129575Y20258D01*
X129345Y20568D01*
X129192Y20930D01*
X129115Y21343D01*
Y21757D01*
X129192Y22170D01*
X129345Y22532D01*
X129575Y22842D01*
X129843Y23048D01*
X130150Y23100D01*
X130457Y23048D01*
X130725Y22842D01*
X130955Y22532D01*
X131108Y22170D01*
X131185Y21757D01*
Y21343D01*
X131108Y20930D01*
X130955Y20568D01*
X130725Y20258D01*
X130457Y20052D01*
X130150Y20000D01*
G01X130457Y20827D02*
X130917Y20000D01*
G01X133173D02*
X133250Y20672D01*
X133365Y21240D01*
X133518Y21757D01*
X133710Y22325D01*
X134017Y23100D01*
X132483D01*
G01X127300Y32400D02*
Y19900D01*
G01X126300Y32400D02*
Y19900D01*
X128300D01*
Y32400D01*
X126300D01*
G01X146583Y29900D02*
Y33000D01*
X147542D01*
X147848Y32845D01*
X148040Y32638D01*
X148117Y32225D01*
X148040Y31812D01*
X147810Y31553D01*
X147542Y31398D01*
X146583D01*
G01X147542D02*
X148117Y29900D01*
G01X150450D02*
Y33000D01*
X149990Y32380D01*
G01Y29900D02*
X150910D01*
G01X152822Y32483D02*
X153052Y32793D01*
X153320Y32948D01*
X153627Y33000D01*
X154010Y32897D01*
X154278Y32638D01*
X154355Y32328D01*
X154317Y32018D01*
X154163Y31760D01*
X153397Y31243D01*
X153052Y30882D01*
X152822Y30365D01*
X152745Y29900D01*
X154355D01*
G01X125950Y49700D02*
X125643Y49752D01*
X125375Y49958D01*
X125145Y50268D01*
X124992Y50630D01*
X124915Y51043D01*
Y51457D01*
X124992Y51870D01*
X125145Y52232D01*
X125375Y52542D01*
X125643Y52748D01*
X125950Y52800D01*
X126257Y52748D01*
X126525Y52542D01*
X126755Y52232D01*
X126908Y51870D01*
X126985Y51457D01*
Y51043D01*
X126908Y50630D01*
X126755Y50268D01*
X126525Y49958D01*
X126257Y49752D01*
X125950Y49700D01*
G01X126257Y50527D02*
X126717Y49700D01*
G01X128322Y50992D02*
X128590Y51353D01*
X128820Y51560D01*
X129127Y51663D01*
X129395Y51560D01*
X129587Y51353D01*
X129740Y51043D01*
X129778Y50682D01*
X129740Y50372D01*
X129587Y50062D01*
X129357Y49803D01*
X129088Y49700D01*
X128782Y49803D01*
X128513Y50113D01*
X128360Y50578D01*
X128322Y51095D01*
X128398Y51767D01*
X128513Y52128D01*
X128705Y52490D01*
X128973Y52748D01*
X129242Y52800D01*
X129510Y52697D01*
X129702Y52438D01*
G01X127000Y47500D02*
X129000Y45500D01*
G01X128000Y46500D02*
X139000D01*
G01X127000Y45500D02*
X139500D01*
Y47500D01*
X127000D01*
Y45500D01*
G01X128300Y32400D02*
X126300Y30400D01*
G01X130900Y65300D02*
X133000D01*
Y57200D01*
X130900D01*
Y65300D01*
G01X131900Y65200D02*
Y57200D01*
G01X131100Y70400D02*
Y71200D01*
X133200D01*
Y70400D01*
X131100D01*
X133200Y71200D01*
G01X136700Y87317D02*
X139800D01*
Y86358D01*
X139645Y86052D01*
X139438Y85860D01*
X139025Y85783D01*
X138612Y85860D01*
X138353Y86090D01*
X138198Y86358D01*
Y87317D01*
G01Y86358D02*
X136700Y85783D01*
G01Y83450D02*
X139800D01*
X139180Y83910D01*
G01X136700D02*
Y82990D01*
G01Y79890D02*
X139800D01*
X137578Y81308D01*
Y79392D01*
G01X135500Y86800D02*
X127500D01*
Y73800D01*
X136000D01*
Y86800D01*
X135500D01*
G01X143583Y78400D02*
Y81500D01*
X144542D01*
X144848Y81345D01*
X145040Y81138D01*
X145117Y80725D01*
X145040Y80312D01*
X144810Y80053D01*
X144542Y79898D01*
X143583D01*
G01X144542D02*
X145117Y78400D01*
G01X146722Y80983D02*
X146952Y81293D01*
X147220Y81448D01*
X147527Y81500D01*
X147910Y81397D01*
X148178Y81138D01*
X148255Y80828D01*
X148217Y80518D01*
X148063Y80260D01*
X147297Y79743D01*
X146952Y79382D01*
X146722Y78865D01*
X146645Y78400D01*
X148255D01*
G01X150550D02*
X150818Y78452D01*
X151125Y78607D01*
X151317Y78865D01*
X151393Y79227D01*
X151317Y79588D01*
X151087Y79898D01*
X150742Y80053D01*
X150358D01*
X150128Y80157D01*
X149937Y80415D01*
X149860Y80777D01*
X149975Y81138D01*
X150243Y81397D01*
X150550Y81500D01*
X150857Y81397D01*
X151125Y81138D01*
X151240Y80777D01*
X151163Y80415D01*
X150972Y80157D01*
X150742Y80053D01*
X150358D01*
X150013Y79898D01*
X149783Y79588D01*
X149707Y79227D01*
X149783Y78865D01*
X149975Y78607D01*
X150282Y78452D01*
X150550Y78400D01*
G01X154400Y69700D02*
Y77700D01*
X141400D01*
Y69200D01*
X154400D01*
Y69700D01*
G01X143783Y64400D02*
Y67500D01*
X144742D01*
X145048Y67345D01*
X145240Y67138D01*
X145317Y66725D01*
X145240Y66312D01*
X145010Y66053D01*
X144742Y65898D01*
X143783D01*
G01X144742D02*
X145317Y64400D01*
G01X146922Y66983D02*
X147152Y67293D01*
X147420Y67448D01*
X147727Y67500D01*
X148110Y67397D01*
X148378Y67138D01*
X148455Y66828D01*
X148417Y66518D01*
X148263Y66260D01*
X147497Y65743D01*
X147152Y65382D01*
X146922Y64865D01*
X146845Y64400D01*
X148455D01*
G01X150098Y64762D02*
X150367Y64503D01*
X150673Y64400D01*
X150980Y64503D01*
X151248Y64813D01*
X151440Y65278D01*
X151517Y65743D01*
Y66312D01*
X151440Y66777D01*
X151248Y67190D01*
X151018Y67397D01*
X150750Y67500D01*
X150443Y67397D01*
X150213Y67190D01*
X150060Y66880D01*
X149983Y66467D01*
X150060Y66105D01*
X150252Y65743D01*
X150482Y65537D01*
X150750Y65485D01*
X151057Y65588D01*
X151287Y65847D01*
X151517Y66312D01*
G01X154400Y55700D02*
Y63700D01*
X141400D01*
Y55200D01*
X154400D01*
Y55700D01*
G01X137650Y60000D02*
X137957Y59948D01*
X138225Y59742D01*
X138455Y59432D01*
X138608Y59070D01*
X138685Y58657D01*
Y58243D01*
X138608Y57830D01*
X138455Y57468D01*
X138225Y57158D01*
X137957Y56952D01*
X137650Y56900D01*
X137343Y56952D01*
X137075Y57158D01*
X136845Y57468D01*
X136692Y57830D01*
X136615Y58243D01*
Y58657D01*
X136692Y59070D01*
X136845Y59432D01*
X137075Y59742D01*
X137343Y59948D01*
X137650Y60000D01*
G01X137343Y59173D02*
X136883Y60000D01*
G01X135393Y59380D02*
X135163Y59742D01*
X134857Y59948D01*
X134512Y60000D01*
X134205Y59948D01*
X133898Y59690D01*
X133707Y59380D01*
X133668Y59070D01*
X133745Y58708D01*
X134013Y58450D01*
X134282Y58347D01*
X134627D01*
G01X134282D02*
X134052Y58192D01*
X133860Y57933D01*
X133783Y57623D01*
X133860Y57313D01*
X134052Y57055D01*
X134397Y56900D01*
X134742Y56952D01*
X135087Y57158D01*
G01X120883Y105400D02*
Y108500D01*
X121842D01*
X122148Y108345D01*
X122340Y108138D01*
X122417Y107725D01*
X122340Y107312D01*
X122110Y107053D01*
X121842Y106898D01*
X120883D01*
G01X121842D02*
X122417Y105400D01*
G01X123907Y106020D02*
X124137Y105658D01*
X124443Y105452D01*
X124788Y105400D01*
X125095Y105452D01*
X125402Y105710D01*
X125593Y106020D01*
X125632Y106330D01*
X125555Y106692D01*
X125287Y106950D01*
X125018Y107053D01*
X124673D01*
G01X125018D02*
X125248Y107208D01*
X125440Y107467D01*
X125517Y107777D01*
X125440Y108087D01*
X125248Y108345D01*
X124903Y108500D01*
X124558Y108448D01*
X124213Y108242D01*
G01X127850Y105400D02*
Y108500D01*
X127390Y107880D01*
G01Y105400D02*
X128310D01*
G01X134100Y109900D02*
Y117900D01*
X121100D01*
Y109400D01*
X134100D01*
Y109900D01*
G01X136800Y98917D02*
X139900D01*
Y97958D01*
X139745Y97652D01*
X139538Y97460D01*
X139125Y97383D01*
X138712Y97460D01*
X138453Y97690D01*
X138298Y97958D01*
Y98917D01*
G01Y97958D02*
X136800Y97383D01*
G01X137420Y95893D02*
X137058Y95663D01*
X136852Y95357D01*
X136800Y95012D01*
X136852Y94705D01*
X137110Y94398D01*
X137420Y94207D01*
X137730Y94168D01*
X138092Y94245D01*
X138350Y94513D01*
X138453Y94782D01*
Y95127D01*
G01Y94782D02*
X138608Y94552D01*
X138867Y94360D01*
X139177Y94283D01*
X139487Y94360D01*
X139745Y94552D01*
X139900Y94897D01*
X139848Y95242D01*
X139642Y95587D01*
G01X137420Y92793D02*
X137058Y92563D01*
X136852Y92257D01*
X136800Y91912D01*
X136852Y91605D01*
X137110Y91298D01*
X137420Y91107D01*
X137730Y91068D01*
X138092Y91145D01*
X138350Y91413D01*
X138453Y91682D01*
Y92027D01*
G01Y91682D02*
X138608Y91452D01*
X138867Y91260D01*
X139177Y91183D01*
X139487Y91260D01*
X139745Y91452D01*
X139900Y91797D01*
X139848Y92142D01*
X139642Y92487D01*
G01X135500Y101600D02*
X127500D01*
Y88600D01*
X136000D01*
Y101600D01*
X135500D01*
G01X145283Y105400D02*
Y108500D01*
X146242D01*
X146548Y108345D01*
X146740Y108138D01*
X146817Y107725D01*
X146740Y107312D01*
X146510Y107053D01*
X146242Y106898D01*
X145283D01*
G01X146242D02*
X146817Y105400D01*
G01X148422Y107983D02*
X148652Y108293D01*
X148920Y108448D01*
X149227Y108500D01*
X149610Y108397D01*
X149878Y108138D01*
X149955Y107828D01*
X149917Y107518D01*
X149763Y107260D01*
X148997Y106743D01*
X148652Y106382D01*
X148422Y105865D01*
X148345Y105400D01*
X149955D01*
G01X151522Y106692D02*
X151790Y107053D01*
X152020Y107260D01*
X152327Y107363D01*
X152595Y107260D01*
X152787Y107053D01*
X152940Y106743D01*
X152978Y106382D01*
X152940Y106072D01*
X152787Y105762D01*
X152557Y105503D01*
X152288Y105400D01*
X151982Y105503D01*
X151713Y105813D01*
X151560Y106278D01*
X151522Y106795D01*
X151598Y107467D01*
X151713Y107828D01*
X151905Y108190D01*
X152173Y108448D01*
X152442Y108500D01*
X152710Y108397D01*
X152902Y108138D01*
G01X141400Y104300D02*
Y96300D01*
X154400D01*
Y104800D01*
X141400D01*
Y104300D01*
G01X145283Y92300D02*
Y95400D01*
X146242D01*
X146548Y95245D01*
X146740Y95038D01*
X146817Y94625D01*
X146740Y94212D01*
X146510Y93953D01*
X146242Y93798D01*
X145283D01*
G01X146242D02*
X146817Y92300D01*
G01X148422Y94883D02*
X148652Y95193D01*
X148920Y95348D01*
X149227Y95400D01*
X149610Y95297D01*
X149878Y95038D01*
X149955Y94728D01*
X149917Y94418D01*
X149763Y94160D01*
X148997Y93643D01*
X148652Y93282D01*
X148422Y92765D01*
X148345Y92300D01*
X149955D01*
G01X152173D02*
X152250Y92972D01*
X152365Y93540D01*
X152518Y94057D01*
X152710Y94625D01*
X153017Y95400D01*
X151483D01*
G01X141400Y91200D02*
Y83200D01*
X154400D01*
Y91700D01*
X141400D01*
Y91200D01*
G01X127193Y136142D02*
X126963Y136297D01*
X126695Y136400D01*
X126388D01*
X126043Y136245D01*
X125775Y135987D01*
X125583Y135677D01*
X125430Y135160D01*
X125392Y134695D01*
X125468Y134230D01*
X125583Y133920D01*
X125813Y133610D01*
X126082Y133403D01*
X126350Y133300D01*
X126618D01*
X126887Y133403D01*
X127117Y133558D01*
X127308Y133765D01*
G01X128722Y135883D02*
X128952Y136193D01*
X129220Y136348D01*
X129527Y136400D01*
X129910Y136297D01*
X130178Y136038D01*
X130255Y135728D01*
X130217Y135418D01*
X130063Y135160D01*
X129297Y134643D01*
X128952Y134282D01*
X128722Y133765D01*
X128645Y133300D01*
X130255D01*
G01X124700Y120300D02*
X132200D01*
Y132300D01*
X124200D01*
Y120300D01*
X124700D01*
G01X145883Y133620D02*
X146075Y133310D01*
X146305Y133103D01*
X146573Y133000D01*
X146880Y133103D01*
X147110Y133310D01*
X147340Y133620D01*
X147417Y134033D01*
Y136100D01*
G01X149022Y135583D02*
X149252Y135893D01*
X149520Y136048D01*
X149827Y136100D01*
X150210Y135997D01*
X150478Y135738D01*
X150555Y135428D01*
X150517Y135118D01*
X150363Y134860D01*
X149597Y134343D01*
X149252Y133982D01*
X149022Y133465D01*
X148945Y133000D01*
X150555D01*
G01X149317Y139700D02*
X148900Y141200D01*
X148483Y139700D01*
G01X147300Y141200D02*
X147433Y141175D01*
X147550Y141075D01*
X147650Y140925D01*
X147717Y140750D01*
X147750Y140550D01*
Y140350D01*
X147717Y140150D01*
X147650Y139975D01*
X147550Y139825D01*
X147433Y139725D01*
X147300Y139700D01*
X147167Y139725D01*
X147050Y139825D01*
X146950Y139975D01*
X146883Y140150D01*
X146850Y140350D01*
Y140550D01*
X146883Y140750D01*
X146950Y140925D01*
X147050Y141075D01*
X147167Y141175D01*
X147300Y141200D01*
G01X146067Y139700D02*
Y140775D01*
X146000Y141000D01*
X145867Y141150D01*
X145700Y141200D01*
X145533Y141150D01*
X145400Y141000D01*
X145333Y140775D01*
Y139700D01*
G01X144100D02*
Y141200D01*
G01X144483Y139700D02*
X143717D01*
G01X132000Y151500D02*
X124000D01*
Y138500D01*
X132500D01*
Y151500D01*
X132000D01*
G01X139700Y111207D02*
X136600D01*
Y111973D01*
X136755Y112280D01*
X136962Y112510D01*
X137272Y112702D01*
X137633Y112855D01*
X138150Y112893D01*
X138667Y112855D01*
X139028Y112702D01*
X139338Y112510D01*
X139545Y112280D01*
X139700Y111973D01*
Y111207D01*
G01Y115610D02*
X136600D01*
X138822Y114192D01*
Y116108D01*
G54D13*
G01X9500Y39500D02*
X5500Y35500D01*
Y9500D01*
X9500Y5500D01*
X21500D01*
X25500Y9500D01*
Y35500D01*
X21500Y39500D01*
X9500D01*
G01Y37500D02*
X7500Y35500D01*
Y9500D01*
X9500Y7500D01*
X21500D01*
X23500Y9500D01*
Y35500D01*
X21500Y37500D01*
X9500D01*
G01X6500Y115700D02*
Y98200D01*
X23500D01*
Y115700D01*
G01X14000Y113200D02*
X16000D01*
Y119200D01*
X14000D01*
Y113200D01*
G01D02*
X16000D01*
Y119200D01*
X14000D01*
Y113200D01*
G01X55500Y83000D02*
X54500D01*
Y53000D01*
X55000Y52500D01*
X107000D01*
Y83000D01*
X55500D01*
G01Y117000D02*
X54500D01*
Y87000D01*
X55000Y86500D01*
X107000D01*
Y117000D01*
X55500D01*
G01X75000Y79500D02*
Y54000D01*
X102500D01*
Y80000D01*
X75000D01*
Y79500D01*
G01Y113500D02*
Y88000D01*
X102500D01*
Y114000D01*
X75000D01*
Y113500D01*
G01X138000Y154000D02*
X134000Y150000D01*
Y124000D01*
X138000Y120000D01*
X150000D01*
X154000Y124000D01*
Y150000D01*
X150000Y154000D01*
X138000D01*
G01Y152000D02*
X136000Y150000D01*
Y124000D01*
X138000Y122000D01*
X150000D01*
X152000Y124000D01*
Y150000D01*
X150000Y152000D01*
X138000D01*
G54D14*
G01X28000Y13000D02*
Y6000D01*
X41000D01*
Y13000D01*
X28000D01*
G01X30500Y82000D02*
X29000Y83500D01*
G01X29500D02*
X30500D01*
Y82000D01*
X19500D01*
Y83500D01*
X29500D01*
G01X96600Y13800D02*
X97600D01*
Y12300D01*
X86600D01*
Y13800D01*
X96600D01*
G01X97600Y12300D02*
X96100Y13800D01*
G01X153500Y109500D02*
Y116500D01*
X140500D01*
Y109500D01*
X153500D01*
G54D15*
G01X27245Y9500D02*
G03X27639I197J0D01*
G01D02*
G03X27245I-197J0D01*
G01X103650Y76874D02*
X102492D01*
G01X105996Y74272D02*
X103650Y76874D01*
G01X105996Y59732D02*
Y74272D01*
G01X103650Y57126D02*
X105996Y59732D01*
G01X102492Y57126D02*
X103650D01*
G01X105996Y108272D02*
X103650Y110874D01*
G01X105996Y93732D02*
Y108272D01*
G01X103650Y91126D02*
X105996Y93732D01*
G01X102492Y91126D02*
X103650D01*
G01Y110874D02*
X102492D01*
G01X154255Y113000D02*
G03X153861I-197J0D01*
G01D02*
G03X154255I197J0D01*
G54D16*
G01X57126Y80992D02*
G02I-492J0D01*
G01Y114992D02*
G02I-492J0D01*
G54D17*
G01X28933Y21500D02*
X33067D01*
G01X28000Y45282D02*
Y49518D01*
G01X12500Y45282D02*
Y49518D01*
G01X11718Y66000D02*
X7482D01*
G01X29718Y65000D02*
X25482D01*
G01X12218Y82500D02*
X7982D01*
G01X12218Y128200D02*
X7982D01*
G01X19564Y120003D02*
G02I-178J0D01*
G01X12118Y144400D02*
X7882D01*
G01X39282Y23500D02*
X43518D01*
G01X34500Y34782D02*
Y39018D01*
G01X41382Y52800D02*
X45618D01*
G01X42018Y97100D02*
X37782D01*
G01X47718Y145000D02*
X43482D01*
G01X30782D02*
X35018D01*
G01X65818Y12600D02*
X61582D01*
G01X75282D02*
X79518D01*
G01X62000Y44682D02*
Y48918D01*
G01X70748Y79795D02*
X77047D01*
G01X70748Y54205D02*
Y79795D01*
G01X77047Y54205D02*
X70748D01*
G01Y88205D02*
Y113795D01*
G01X77047Y88205D02*
X70748D01*
G01X82000Y125282D02*
Y129518D01*
G01X66500Y125282D02*
Y129518D01*
G01X70748Y113795D02*
X77047D01*
G01X80500Y145718D02*
Y141482D01*
G01X64718Y145000D02*
X60482D01*
G01X103494Y6902D02*
Y11036D01*
G01X110282Y28600D02*
X114518D01*
G01X109102Y52806D02*
X113236D01*
G01X121298Y56994D02*
X117164D01*
G01X120798Y73694D02*
X116664D01*
G01X114482Y135900D02*
X118718D01*
G01X99000Y129218D02*
Y124982D01*
G01X104598Y137894D02*
X100464D01*
G01X128318Y12400D02*
X124082D01*
G01X148282Y22600D02*
X152518D01*
G01X125894Y40402D02*
Y44536D01*
G01X121102Y33206D02*
X125236D01*
G01X133718Y80300D02*
X129482D01*
G01X147900Y71482D02*
Y75718D01*
G01Y57482D02*
Y61718D01*
G01X125902Y70606D02*
X130036D01*
G01X133718Y95100D02*
X129482D01*
G01X147900Y102518D02*
Y98282D01*
G01Y89418D02*
Y85182D01*
G01X122106Y94898D02*
Y90764D01*
G01X126133Y126300D02*
X130267D01*
G01X127600Y111682D02*
Y115918D01*
G01X130218Y145000D02*
X125982D01*
M02*
