G04 ================== begin FILE IDENTIFICATION RECORD ==================*
G04 Layout Name:  stabilizator_layout_v5.brd*
G04 Film Name:    TOP*
G04 File Format:  Gerber RS274X*
G04 File Origin:  Cadence Allegro 24.1-P001*
G04 Origin Date:  Sun Dec 15 00:12:25 2024*
G04 *
G04 Layer:  VIA CLASS/TOP*
G04 Layer:  PIN/TOP*
G04 Layer:  ETCH/TOP*
G04 *
G04 Offset:    (0.00 0.00)*
G04 Mirror:    No*
G04 Mode:      Positive*
G04 Rotation:  0*
G04 FullContactRelief:  No*
G04 UndefLineWidth:     0.10*
G04 ================== end FILE IDENTIFICATION RECORD ====================*
%FSLAX25Y25*MOIN*%
%IR0*IPPOS*OFA0.00000B0.00000*MIA0B0*SFA1.00000B1.00000*%
%ADD11R,.12X.08*%
%ADD20R,.12X.064*%
%ADD13C,.02*%
%ADD18C,.04*%
%ADD23R,.04X.04*%
%ADD19R,.052X.052*%
%ADD24R,.04X.04*%
%ADD22R,.04X.04*%
%ADD12R,.04X.044*%
%ADD16R,.04X.036*%
%ADD17R,.08X.052*%
%ADD21R,.248X.232*%
%ADD15R,.056X.036*%
%ADD14R,.036X.056*%
%ADD10R,.064X.038*%
%ADD25C,.018*%
G75*
%LPD*%
G75*
G36*
G01X70000Y117500D02*
X107000D01*
Y105202D01*
X105998D01*
Y54198D01*
X107000D01*
Y52000D01*
X70000D01*
Y117500D01*
G37*
G36*
G01X115298Y82400D02*
G03X115300Y82339I1401J15D01*
G01Y78861D01*
G03X115298Y78800I1399J-76D01*
G01Y74800D01*
G03X115300Y74739I1401J15D01*
G01Y55600D01*
X107400D01*
Y103800D01*
X115300D01*
Y86461D01*
G03X115298Y86400I1399J-76D01*
G01Y82400D01*
G37*
%LPC*%
G75*
G36*
G01X75834Y89400D02*
Y112600D01*
G02X76336Y113102I502J0D01*
G01X101136D01*
G02X101638Y112600I0J-502D01*
G01Y89400D01*
G02X101136Y88898I-502J0D01*
G01X76336D01*
G02X75834Y89400I0J502D01*
G37*
G36*
G01Y55400D02*
Y78600D01*
G02X76336Y79102I502J0D01*
G01X101136D01*
G02X101638Y78600I0J-502D01*
G01Y55400D01*
G02X101136Y54898I-502J0D01*
G01X76336D01*
G02X75834Y55400I0J502D01*
G37*
G36*
G01X108498Y98500D02*
G02X109000Y99002I502J0D01*
G01X113000D01*
G02X113502Y98500I0J-502D01*
G01Y94500D01*
G02X113000Y93998I-502J0D01*
G01X109000D01*
G02X108498Y94500I0J502D01*
G01Y98500D01*
G37*
G36*
G01X108698Y66100D02*
G02X109200Y66602I502J0D01*
G01X113200D01*
G02X113702Y66100I0J-502D01*
G01Y62100D01*
G02X113200Y61598I-502J0D01*
G01X109200D01*
G02X108698Y62100I0J502D01*
G01Y66100D01*
G37*
G36*
G01X108198Y82600D02*
G02X108700Y83102I502J0D01*
G01X112700D01*
G02X113202Y82600I0J-502D01*
G01Y78600D01*
G02X112700Y78098I-502J0D01*
G01X108700D01*
G02X108198Y78600I0J502D01*
G01Y82600D01*
G37*
%LPD*%
G75*
G54D10*
X31000Y18272D03*
Y24728D03*
X128200Y129528D03*
Y123072D03*
G54D20*
X62161Y57984D03*
Y67000D03*
Y76016D03*
Y91984D03*
Y101000D03*
Y110016D03*
G54D11*
X15500Y13500D03*
Y31500D03*
X144000Y128000D03*
Y146000D03*
G54D21*
X88736Y67000D03*
Y101000D03*
G54D12*
X31000Y9500D03*
X38000D03*
X143500Y113000D03*
X150500D03*
G54D22*
X110600Y17000D03*
X114600Y9000D03*
X107000D03*
X133000Y50500D03*
X137000Y42500D03*
X129400D03*
G54D13*
G01X15500Y13500D02*
Y20000D01*
G01X31000Y18272D02*
X24628D01*
X22900Y20000D01*
X15500D01*
G01X9260Y47400D02*
Y51700D01*
X11895Y54335D01*
Y57165D01*
X9600Y59460D01*
Y62760D01*
G01X15500Y31500D02*
Y37000D01*
X9260Y43240D01*
Y47400D01*
G01X31000Y24728D02*
X26272D01*
X24500Y26500D01*
Y29500D01*
X22500Y31500D01*
X15500D01*
G01X43500Y56040D02*
X19760D01*
X19568Y56232D01*
X19508D01*
X17740Y58000D01*
G01D02*
Y60760D01*
X15740Y62760D01*
X9600D01*
G01X34300Y79500D02*
X31800D01*
X29000Y82300D01*
Y86900D01*
G01X10000Y147640D02*
X16140D01*
G01X31000Y18272D02*
Y9500D01*
G01X62161Y67000D02*
X50700D01*
G01X88700Y45000D02*
Y47500D01*
X88736Y47536D01*
Y67000D01*
G01D02*
X62161D01*
G01X104193D02*
X88736D01*
G01Y88698D02*
Y101000D01*
G01X62161D02*
X88736D01*
G01D02*
Y113302D01*
G01Y101000D02*
X101838D01*
G01X125294Y47206D02*
X123788Y45700D01*
X119200D01*
G01X112400Y31840D02*
Y35140D01*
X114860Y37600D01*
X117400D01*
X119200Y39400D01*
Y45700D01*
G01X119000Y100500D02*
X125140D01*
X127300Y98340D01*
X131600D01*
G01X126200Y15640D02*
X133140D01*
G01X150400Y19360D02*
Y13200D01*
G01X131600Y77060D02*
X139000D01*
G01X131600Y98340D02*
Y104500D01*
G01X128200Y123072D02*
X134928D01*
X139300Y118700D01*
X144000D01*
G01D02*
Y128000D01*
G01X150500Y113000D02*
Y116700D01*
X148500Y118700D01*
X144000D01*
G01Y128000D02*
Y136200D01*
G01X151140Y59600D02*
Y51760D01*
G01Y73600D02*
Y59600D01*
X15500Y20000D03*
X17740Y58000D03*
X26000Y94200D03*
X16140Y147640D03*
X51400Y75100D03*
X50700Y67000D03*
X34300Y79500D03*
X52100Y91600D03*
X56900Y127400D03*
X72300Y46800D03*
X88700Y45000D03*
X116800Y17000D03*
X102100Y31500D03*
X93800Y46400D03*
X117700Y54100D03*
X111000Y105300D03*
X94500Y139500D03*
X110500Y149000D03*
X120500Y144500D03*
X133140Y15640D03*
X150400Y13200D03*
X137300Y26300D03*
X142900Y50500D03*
X125294Y47206D03*
X151140Y51760D03*
X128000Y38000D03*
X132400Y68400D03*
X139000Y77060D03*
X135500Y106900D03*
X123600Y88700D03*
X131600Y104500D03*
X138400Y135700D03*
X144000Y136200D03*
G54D14*
X24760Y47400D03*
X31240D03*
X9260D03*
X15740D03*
X31260Y36900D03*
X37740D03*
X58760Y46800D03*
X63260Y127400D03*
X65240Y46800D03*
X83740Y143600D03*
X77260D03*
X78760Y127400D03*
X85240D03*
X69740D03*
X102240Y127100D03*
X95760D03*
X144660Y73600D03*
X151140D03*
X144660Y59600D03*
X151140D03*
X124360Y113800D03*
X130840D03*
X151140Y100400D03*
X144660D03*
X151140Y87300D03*
X144660D03*
G54D23*
X123200Y22500D03*
Y30100D03*
X110700Y80600D03*
X118700Y76800D03*
Y84400D03*
X131200Y26300D03*
G54D15*
X9600Y62760D03*
Y69240D03*
X27600Y61760D03*
Y68240D03*
X10100Y79260D03*
Y85740D03*
X32900Y141760D03*
X10100Y124960D03*
Y131440D03*
X10000Y141160D03*
X32900Y148240D03*
X10000Y147640D03*
X41400Y20260D03*
X63700Y9360D03*
Y15840D03*
X41400Y26740D03*
X43500Y49560D03*
Y56040D03*
X39900Y93860D03*
Y100340D03*
X62600Y141760D03*
X45600D03*
X62600Y148240D03*
X45600D03*
X77400Y15840D03*
Y9360D03*
X112400Y31840D03*
Y25360D03*
X116600Y139140D03*
Y132660D03*
X126200Y9160D03*
Y15640D03*
X150400Y19360D03*
Y25840D03*
X131600Y77060D03*
Y91860D03*
Y98340D03*
Y83540D03*
X128100Y141760D03*
Y148240D03*
G54D24*
X119200Y45700D03*
X111200Y41700D03*
Y49300D03*
Y64100D03*
X119200Y68100D03*
Y60500D03*
X111000Y96500D03*
X119000Y100500D03*
Y92900D03*
X102500Y141400D03*
X94500Y145000D03*
X102500Y149000D03*
X136000Y63500D03*
X128000Y59500D03*
Y67100D03*
G54D25*
G01X31260Y36900D02*
Y43180D01*
X31240Y43200D01*
Y47400D01*
G01X15740D02*
X24760D01*
G01X9600Y69240D02*
X15759D01*
X23239Y61760D01*
X27600D01*
G01Y68240D02*
X21120D01*
X18100Y71260D01*
Y76460D01*
X15300Y79260D01*
X10100D01*
G01X25200Y78900D02*
X21140D01*
X14300Y85740D01*
X10100D01*
G01X58760Y46800D02*
X53600D01*
X51600Y48800D01*
Y55900D01*
X28600Y78900D01*
X25200D01*
G01X15000Y94200D02*
X26000D01*
G01X10100Y124960D02*
Y121100D01*
X10500Y120700D01*
Y116200D01*
G01X10000Y141160D02*
Y137960D01*
X10600Y137360D01*
Y135140D01*
X10100Y134640D01*
Y131440D01*
G01X32900Y141760D02*
Y134900D01*
X19700Y121700D01*
Y116200D01*
G01X43500Y49560D02*
Y42100D01*
X48600Y37000D01*
Y12000D01*
X51240Y9360D01*
X63700D01*
G01X38000Y9500D02*
Y13660D01*
X41400Y17060D01*
Y20260D01*
G01X37740Y36900D02*
X40940D01*
X42500Y35340D01*
Y31500D01*
X41400Y30400D01*
Y26740D01*
G01X93800Y46400D02*
Y44000D01*
X90900Y41100D01*
X60300D01*
X58500Y42900D01*
Y46540D01*
X58760Y46800D01*
G01X39900Y93860D02*
Y72845D01*
X54761Y57984D01*
X62161D01*
G01X51400Y75100D02*
Y80278D01*
G01D02*
X48100Y83578D01*
Y105549D01*
X52567Y110016D01*
X62161D01*
G01X51400Y80278D02*
X55661Y76017D01*
X60900D01*
X60901Y76016D01*
X62161D01*
G01X39900Y100340D02*
Y106300D01*
X51700Y118100D01*
X67240D01*
X69740Y120600D01*
Y127400D01*
G01X52100Y91600D02*
X52484Y91984D01*
X62161D01*
G01X63260Y127400D02*
X56900D01*
G01X32900Y148240D02*
X45600D01*
G01D02*
X62600D01*
G01X45600Y141760D02*
X62600D01*
G01X92300Y9200D02*
X84160D01*
X84000Y9360D01*
X77400D01*
G01Y15840D02*
X63700D01*
G01X72300Y46800D02*
X65240D01*
G01X85240Y127400D02*
X90500D01*
X90800Y127100D01*
X95760D01*
G01X85240Y127400D02*
Y132760D01*
X77260Y140740D01*
Y143600D01*
G01X69740Y127400D02*
X78760D01*
G01X83740Y143600D02*
Y139400D01*
X88640Y134500D01*
X107300D01*
G01X102240Y127100D02*
Y121800D01*
X100440Y120000D01*
X80560D01*
X78760Y121800D01*
Y127400D01*
G01X102500Y149000D02*
X99100D01*
X98100Y150000D01*
X72000D01*
X70240Y148240D01*
X62600D01*
G01Y141760D02*
X69760D01*
X71600Y143600D01*
X77260D01*
G01X114600Y9000D02*
X118000D01*
X118900Y8100D01*
X120940D01*
X122000Y9160D01*
X126200D01*
G01X110600Y17000D02*
X107200D01*
X105800Y18400D01*
X102500D01*
G01D02*
X100700D01*
X99500Y17200D01*
X96100D01*
G01X107000Y9000D02*
X104300D01*
X102500Y10800D01*
Y18400D01*
G01X116800Y17000D02*
X110600D01*
G01X102100Y31500D02*
Y37100D01*
X106700Y41700D01*
X111200D01*
G01X123200Y22500D02*
X119460D01*
X116600Y25360D01*
X112400D01*
G01X111200Y64100D02*
Y49300D01*
G01Y64100D02*
Y66802D01*
G01X108498Y64100D02*
X111200D01*
G01D02*
X113902D01*
G01X110700Y77898D02*
Y80600D01*
G01D02*
Y83302D01*
G01Y80600D02*
X113402D01*
G01X119200Y60500D02*
Y55600D01*
X117700Y54100D01*
G01X136000Y63500D02*
Y69600D01*
X133100Y72500D01*
X127499D01*
X123199Y76800D01*
X118700D01*
G01X128000Y59500D02*
X125300D01*
X123500Y61300D01*
Y66300D01*
X121700Y68100D01*
X119200D01*
G01X118700Y84400D02*
X126540D01*
X127400Y83540D01*
X131600D01*
G01X111000Y105300D02*
Y96500D01*
G01Y93798D02*
Y96500D01*
G01D02*
X113702D01*
G01X119000Y92900D02*
X126360D01*
X127400Y91860D01*
X131600D01*
G01X123600Y88700D02*
X119800D01*
X119000Y89500D01*
Y92900D01*
G01X116600Y132660D02*
Y112300D01*
X121200Y107700D01*
X128940D01*
X130840Y109600D01*
Y113800D01*
G01X107300Y134500D02*
Y128960D01*
X105440Y127100D01*
X102240D01*
G01X107300Y134500D02*
X107374Y134574D01*
Y140126D01*
X106100Y141400D01*
X102500D01*
G01X94500Y145000D02*
Y139500D01*
G01X124360Y113800D02*
Y118559D01*
X122500Y120419D01*
Y136840D01*
X120200Y139140D01*
X116600D01*
G01D02*
Y146440D01*
X118400Y148240D01*
X128100D01*
G01Y141760D02*
X123900D01*
X123880Y141780D01*
X123020D01*
X120500Y144300D01*
Y144500D01*
G01X102500Y149000D02*
X110500D01*
G01X150400Y25840D02*
Y38600D01*
X146500Y42500D01*
X137000D01*
G01X123200Y30100D02*
X129500D01*
X131200Y28400D01*
Y26300D01*
G01D02*
X137300D01*
G01X136000Y63500D02*
Y57400D01*
X142900Y50500D01*
G01X128000Y59500D02*
Y52100D01*
X129600Y50500D01*
X133000D01*
G01X129400Y42500D02*
Y39400D01*
X128000Y38000D01*
G01X144660Y73600D02*
Y87300D01*
G01Y59600D02*
Y73600D01*
G01X128000Y67100D02*
X131100D01*
X132400Y68400D01*
G01X144660Y100400D02*
Y87300D01*
G01X135500Y106900D02*
X149700D01*
X151140Y105460D01*
Y100400D01*
G01X128100Y141760D02*
Y138560D01*
X126420Y136880D01*
Y134608D01*
X128200Y132828D01*
Y129528D01*
G01X138400Y135700D02*
X136000D01*
X134700Y134400D01*
Y131328D01*
X132900Y129528D01*
X128200D01*
G01X130840Y113800D02*
X137200D01*
X138000Y113000D01*
X143500D01*
G01X144000Y146000D02*
X136600D01*
X132360Y141760D01*
X128100D01*
G01X151140Y100400D02*
Y87300D01*
G54D16*
X25200Y78900D03*
X21400Y86900D03*
X29000D03*
X92300Y9200D03*
X88500Y17200D03*
X96100D03*
G54D17*
X15000Y94200D03*
G54D18*
X20000Y140000D03*
X140000Y20000D03*
G54D19*
X10500Y116200D03*
X19700D03*
M02*
